ply
format ascii 1.0
comment Created by Blender 2.83.0 - www.blender.org, source file: 'basic_form.blend'
element vertex 96
property float x
property float y
property float z
property float nx
property float ny
property float nz
property float s
property float t
element face 32
property list uchar uint vertex_indices
end_header
-0.174381 0.948414 0.000000 -0.968974 -0.140986 0.203010 0.865674 0.278114
-0.215241 0.587141 -0.445926 -0.968974 -0.140986 0.203010 0.995734 0.015200
-0.121816 0.587141 0.000000 -0.968974 -0.140986 0.203010 0.995734 0.278114
-0.113105 1.174282 -0.552342 0.000000 -0.178339 -0.983969 0.300915 0.852877
0.215241 0.587141 -0.445926 0.000000 -0.178339 -0.983969 0.563828 0.722817
-0.215241 0.587141 -0.445926 0.000000 -0.178339 -0.983969 0.563828 0.852877
0.174381 0.948414 0.000000 0.968974 -0.140986 -0.203010 0.849543 0.865674
0.215241 0.587141 0.445926 0.968974 -0.140986 -0.203010 0.586629 0.995734
0.121816 0.587141 0.000000 0.968974 -0.140986 -0.203010 0.849543 0.995734
0.328597 1.319314 0.703160 0.000000 -0.331467 0.943467 0.300915 0.710020
-0.215241 0.587141 0.445926 0.000000 -0.331467 0.943467 0.563828 0.579960
0.215241 0.587141 0.445926 0.000000 -0.331467 0.943467 0.563828 0.710020
0.174381 0.225868 0.000000 0.000000 -0.922229 -0.386644 0.722817 0.849543
-0.131789 0.000000 0.538743 0.000000 -0.922229 -0.386644 0.852877 0.586629
-0.174381 0.225868 0.000000 0.000000 -0.922229 -0.386644 0.852877 0.849543
-0.174381 0.948414 0.000000 0.000000 0.884495 -0.466550 0.579960 0.849543
0.328597 1.319314 0.703160 0.000000 0.884495 -0.466550 0.710020 0.586629
0.174381 0.948414 0.000000 0.000000 0.884495 -0.466550 0.710020 0.849543
-0.113105 1.174282 -0.552342 0.000000 0.925600 0.378503 0.278114 0.865674
0.174381 0.948414 0.000000 0.000000 0.925600 0.378503 0.015200 0.995734
0.113105 1.174282 -0.552342 0.000000 0.925600 0.378503 0.278114 0.995734
0.383739 0.000000 -0.775719 0.000000 -0.960127 0.279563 0.015200 0.849543
-0.174381 0.225868 0.000000 0.000000 -0.960127 0.279563 0.278114 0.586629
-0.383739 0.000000 -0.775719 0.000000 -0.960127 0.279563 0.278114 0.849543
0.215241 0.587141 -0.445926 0.968974 -0.140986 0.203010 0.841942 0.861408
0.174381 0.948414 0.000000 0.968974 -0.140986 0.203010 0.579029 0.991469
0.121816 0.587141 0.000000 0.968974 -0.140986 0.203010 0.579029 0.861408
-0.215241 0.587141 0.445926 -0.968974 -0.140986 -0.203010 0.861408 0.270514
-0.174381 0.948414 0.000000 -0.968974 -0.140986 -0.203010 0.991469 0.007600
-0.121816 0.587141 0.000000 -0.968974 -0.140986 -0.203010 0.861408 0.007600
-0.215241 0.587141 0.445926 -0.990288 -0.137489 0.020647 0.849543 0.278114
-0.174381 0.225868 0.000000 -0.990288 -0.137489 0.020647 0.586629 0.278114
-0.131789 0.000000 0.538743 -0.990288 -0.137489 0.020647 0.849543 0.015200
0.215241 0.587141 -0.445926 0.964118 0.156048 0.214768 0.563828 0.563828
0.174381 0.225868 0.000000 0.964118 0.156048 0.214768 0.300915 0.563828
0.383739 0.000000 -0.775719 0.964118 0.156048 0.214768 0.563828 0.300915
0.215241 0.587141 0.445926 0.000000 0.156143 0.987734 0.300915 0.995734
-0.131789 0.000000 0.538743 0.000000 0.156143 0.987734 0.563828 0.865674
0.131789 0.000000 0.538743 0.000000 0.156143 0.987734 0.563828 0.995734
0.174381 0.225868 0.000000 0.990288 -0.137489 0.020647 0.841942 0.007600
0.215241 0.587141 0.445926 0.990288 -0.137489 0.020647 0.579029 0.007600
0.131789 0.000000 0.538743 0.990288 -0.137489 0.020647 0.579029 0.270514
-0.215241 0.587141 -0.445926 0.000000 0.489726 -0.871876 0.007600 0.841942
0.383739 0.000000 -0.775719 0.000000 0.489726 -0.871876 0.270514 0.579029
-0.383739 0.000000 -0.775719 0.000000 0.489726 -0.871876 0.007600 0.579029
-0.174381 0.225868 0.000000 -0.964118 0.156048 0.214768 0.556228 0.293315
-0.215241 0.587141 -0.445926 -0.964118 0.156048 0.214768 0.293315 0.293315
-0.383739 0.000000 -0.775719 -0.964118 0.156048 0.214768 0.293315 0.556228
-0.174381 0.948414 0.000000 -0.985588 0.163769 -0.042369 0.278114 0.563828
-0.113105 1.174282 -0.552342 -0.985588 0.163769 -0.042369 0.278114 0.300915
-0.215241 0.587141 -0.445926 -0.985588 0.163769 -0.042369 0.015200 0.563828
-0.113105 1.174282 -0.552342 -0.000000 -0.178339 -0.983969 0.293315 0.991469
0.113105 1.174282 -0.552342 -0.000000 -0.178339 -0.983969 0.293315 0.861408
0.215241 0.587141 -0.445926 -0.000000 -0.178339 -0.983969 0.556228 0.861408
0.174381 0.948414 0.000000 0.981685 -0.093709 -0.165873 0.015200 0.278114
0.328597 1.319314 0.703160 0.981685 -0.093709 -0.165873 0.278114 0.015200
0.215241 0.587141 0.445926 0.981685 -0.093709 -0.165873 0.278114 0.278114
0.328597 1.319314 0.703160 0.000000 -0.331467 0.943467 0.300915 0.278114
-0.328597 1.319314 0.703160 0.000000 -0.331467 0.943467 0.563828 0.278114
-0.215241 0.587141 0.445926 0.000000 -0.331467 0.943467 0.563828 0.015200
0.174381 0.225868 0.000000 0.000000 -0.922229 -0.386644 0.718551 0.841942
0.131789 0.000000 0.538743 0.000000 -0.922229 -0.386644 0.718551 0.579029
-0.131789 0.000000 0.538743 0.000000 -0.922229 -0.386644 0.848612 0.579029
-0.174381 0.948414 0.000000 0.000000 0.884495 -0.466550 0.293315 0.270514
-0.328597 1.319314 0.703160 0.000000 0.884495 -0.466550 0.293315 0.007600
0.328597 1.319314 0.703160 0.000000 0.884495 -0.466550 0.556228 0.007600
-0.113105 1.174282 -0.552342 0.000000 0.925600 0.378503 0.270514 0.861408
-0.174381 0.948414 0.000000 0.000000 0.925600 0.378503 0.007600 0.861408
0.174381 0.948414 0.000000 0.000000 0.925600 0.378503 0.007600 0.991469
0.383739 0.000000 -0.775719 0.000000 -0.960127 0.279563 0.575694 0.841942
0.174381 0.225868 0.000000 0.000000 -0.960127 0.279563 0.575694 0.579029
-0.174381 0.225868 0.000000 0.000000 -0.960127 0.279563 0.705755 0.579029
0.215241 0.587141 -0.445926 0.985588 0.163769 -0.042369 0.270514 0.293315
0.113105 1.174282 -0.552342 0.985588 0.163769 -0.042369 0.007600 0.556228
0.174381 0.948414 0.000000 0.985588 0.163769 -0.042369 0.007600 0.293315
-0.215241 0.587141 0.445926 -0.981685 -0.093709 -0.165873 0.007600 0.007600
-0.328597 1.319314 0.703160 -0.981685 -0.093709 -0.165873 0.007600 0.270514
-0.174381 0.948414 0.000000 -0.981685 -0.093709 -0.165873 0.270514 0.007600
-0.215241 0.587141 0.445926 -0.968974 0.140986 -0.203010 0.710020 0.300915
-0.121816 0.587141 0.000000 -0.968974 0.140986 -0.203010 0.710020 0.563828
-0.174381 0.225868 0.000000 -0.968974 0.140986 -0.203010 0.579960 0.563828
0.215241 0.587141 -0.445926 0.968974 0.140986 0.203010 0.852877 0.300915
0.121816 0.587141 0.000000 0.968974 0.140986 0.203010 0.852877 0.563828
0.174381 0.225868 0.000000 0.968974 0.140986 0.203010 0.722817 0.563828
0.215241 0.587141 0.445926 -0.000000 0.156143 0.987734 0.293315 0.848612
-0.215241 0.587141 0.445926 -0.000000 0.156143 0.987734 0.293315 0.718551
-0.131789 0.000000 0.538743 -0.000000 0.156143 0.987734 0.556228 0.718551
0.174381 0.225868 0.000000 0.968974 0.140986 -0.203010 0.848612 0.293315
0.121816 0.587141 0.000000 0.968974 0.140986 -0.203010 0.718551 0.293315
0.215241 0.587141 0.445926 0.968974 0.140986 -0.203010 0.718551 0.556228
-0.215241 0.587141 -0.445926 0.000000 0.489726 -0.871876 0.293315 0.705755
0.215241 0.587141 -0.445926 0.000000 0.489726 -0.871876 0.293315 0.575694
0.383739 0.000000 -0.775719 0.000000 0.489726 -0.871876 0.556228 0.575694
-0.174381 0.225868 0.000000 -0.968974 0.140986 0.203010 0.705755 0.293315
-0.121816 0.587141 0.000000 -0.968974 0.140986 0.203010 0.575694 0.293315
-0.215241 0.587141 -0.445926 -0.968974 0.140986 0.203010 0.575694 0.556228
3 0 1 2
3 3 4 5
3 6 7 8
3 9 10 11
3 12 13 14
3 15 16 17
3 18 19 20
3 21 22 23
3 24 25 26
3 27 28 29
3 30 31 32
3 33 34 35
3 36 37 38
3 39 40 41
3 42 43 44
3 45 46 47
3 48 49 50
3 51 52 53
3 54 55 56
3 57 58 59
3 60 61 62
3 63 64 65
3 66 67 68
3 69 70 71
3 72 73 74
3 75 76 77
3 78 79 80
3 81 82 83
3 84 85 86
3 87 88 89
3 90 91 92
3 93 94 95
