ply
format ascii 1.0
comment Created by Blender 2.82 (sub 7) - www.blender.org, source file: 'monkey_test.blend'
element vertex 108
property float x
property float y
property float z
property float nx
property float ny
property float nz
property float s
property float t
element face 96
property list uchar uint vertex_indices
end_header
2.603870 2.000000 -3.354003 0.000000 0.653218 -0.757134 1.000000 1.000000
3.103870 0.000000 -3.220029 0.378552 -0.653218 -0.655721 0.916667 0.566322
2.603870 0.000000 -3.354003 0.000000 -0.653218 -0.757134 1.000000 0.566322
3.103870 2.000000 -3.220029 0.378552 0.653218 -0.655721 0.916667 1.000000
3.469895 0.000000 -2.854003 0.655721 -0.653218 -0.378552 0.833333 0.566322
3.469895 2.000000 -2.854003 0.655721 0.653218 -0.378552 0.833333 1.000000
3.603870 0.000000 -2.354003 0.757134 -0.653218 0.000000 0.750000 0.566322
3.603870 2.000000 -2.354003 0.757134 0.653218 0.000000 0.750000 1.000000
3.469895 0.000000 -1.854003 0.655721 -0.653218 0.378552 0.666667 0.566322
3.469895 2.000000 -1.854003 0.655721 0.653218 0.378552 0.666667 1.000000
3.103870 0.000000 -1.487978 0.378552 -0.653218 0.655721 0.583333 0.566322
3.103870 2.000000 -1.487978 0.378552 0.653218 0.655721 0.583333 1.000000
2.603870 0.000000 -1.354003 0.000000 -0.653218 0.757134 0.500000 0.566322
2.603870 2.000000 -1.354003 0.000000 0.653218 0.757134 0.500000 1.000000
2.103870 0.000000 -1.487978 -0.378552 -0.653218 0.655721 0.416667 0.566322
2.103870 2.000000 -1.487978 -0.378552 0.653218 0.655721 0.416667 1.000000
1.737845 0.000000 -1.854003 -0.655721 -0.653218 0.378552 0.333333 0.566322
1.737845 2.000000 -1.854003 -0.655721 0.653218 0.378552 0.333333 1.000000
1.603870 0.000000 -2.354003 -0.757134 -0.653218 0.000000 0.250000 0.566322
1.603870 2.000000 -2.354003 -0.757134 0.653218 0.000000 0.250000 1.000000
1.737844 0.000000 -2.854003 -0.655721 -0.653218 -0.378552 0.166667 0.566322
2.985769 2.000000 -1.692535 -0.318857 0.770257 -0.552263 0.500064 0.199774
2.603870 0.000000 -1.590205 0.000000 -0.770257 -0.637715 0.416742 0.565355
2.603870 2.000000 -1.590205 0.000000 0.770257 -0.637715 0.416742 0.199774
1.737844 2.000000 -2.854003 -0.655721 0.653218 -0.378552 0.166667 1.000000
2.103869 0.000000 -3.220028 -0.378552 -0.653218 -0.655721 0.083333 0.566322
2.603870 2.000000 -3.354003 0.000000 0.653218 -0.757134 0.000000 1.000000
2.603870 0.000000 -3.354003 0.000000 -0.653218 -0.757134 0.000000 0.566322
3.103870 0.000000 -1.487978 -0.000000 -1.000000 0.000000 1.018788 0.232153
3.265338 0.000000 -1.972104 -0.000000 -1.000000 0.000000 1.032543 0.259675
3.469895 0.000000 -1.854003 -0.000000 -1.000000 0.000000 1.018788 0.263360
2.603870 2.000000 -3.117802 0.000000 1.000000 -0.000000 0.834292 0.175726
3.103870 2.000000 -3.220029 0.000000 1.000000 -0.000000 0.631396 0.095594
2.603870 2.000000 -3.354003 0.000000 1.000000 -0.000000 0.812907 0.095710
3.265338 2.000000 -2.735903 -0.000000 1.000000 0.000000 0.557017 0.175549
2.985769 2.000000 -3.015472 -0.000000 1.000000 0.000000 0.695654 0.175637
3.265338 2.000000 -2.735903 0.000000 1.000000 -0.000000 0.556588 0.008750
3.603870 2.000000 -2.354003 0.000000 1.000000 -0.000000 0.630982 0.088691
3.469895 2.000000 -2.854003 0.000000 1.000000 -0.000000 0.449471 0.088842
3.265338 2.000000 -1.972104 0.000000 1.000000 -0.000000 0.833862 0.008519
3.367668 2.000000 -2.354003 0.000000 1.000000 -0.000000 0.695225 0.008635
2.985769 2.000000 -1.692535 0.000000 1.000000 -0.000000 0.972500 0.008404
3.469895 2.000000 -1.854003 0.000000 1.000000 -0.000000 0.812492 0.088540
2.603870 2.000000 -1.590205 0.000000 1.000000 -0.000000 0.165295 0.095389
3.103870 2.000000 -1.487978 0.000000 1.000000 -0.000000 0.005186 0.175323
2.985769 2.000000 -1.692535 0.000000 1.000000 -0.000000 0.026657 0.095330
2.221971 2.000000 -1.692535 0.000000 1.000000 -0.000000 0.303932 0.095449
2.603870 2.000000 -1.354003 0.000000 1.000000 -0.000000 0.186697 0.175401
1.942401 2.000000 -1.972104 0.000000 1.000000 0.000000 0.442570 0.095509
2.103870 2.000000 -1.487978 0.000000 1.000000 0.000000 0.368208 0.175479
1.840072 2.000000 -2.354003 0.000000 1.000000 0.000000 0.305079 0.088342
1.737845 2.000000 -1.854003 0.000000 1.000000 0.000000 0.551024 0.008722
1.942401 2.000000 -1.972104 0.000000 1.000000 0.000000 0.443716 0.088558
1.737844 2.000000 -2.854003 -0.000000 1.000000 0.000000 0.188002 0.008156
1.603870 2.000000 -2.354003 -0.000000 1.000000 0.000000 0.369513 0.008439
2.221970 2.000000 -3.015472 0.000000 1.000000 0.000000 0.027804 0.087909
1.942401 2.000000 -2.735902 0.000000 1.000000 0.000000 0.166441 0.088125
2.221970 2.000000 -3.015472 -0.000000 1.000000 -0.000000 0.972930 0.175815
2.103869 2.000000 -3.220028 -0.000000 1.000000 -0.000000 0.994418 0.095826
3.367668 0.000000 -2.354003 0.000000 -1.000000 0.000000 1.044461 0.280317
3.603870 0.000000 -2.354003 0.000000 -1.000000 0.000000 1.034392 0.290387
3.265338 2.000000 -2.735903 -0.552263 0.770257 0.318857 0.750031 0.199774
3.367668 0.000000 -2.354003 -0.637715 -0.770257 0.000000 0.666709 0.565355
3.367668 2.000000 -2.354003 -0.637715 0.770257 0.000000 0.666709 0.199774
1.840072 2.000000 -2.354003 0.637715 0.770257 0.000000 0.166774 0.199774
1.942401 0.000000 -2.735902 0.552263 -0.770257 0.318857 0.083451 0.565355
1.942401 2.000000 -2.735902 0.552263 0.770257 0.318857 0.083452 0.199774
2.221971 0.000000 -1.692535 0.318857 -0.770257 -0.552263 0.333419 0.565356
2.221971 2.000000 -1.692535 0.318857 0.770257 -0.552263 0.333419 0.199774
3.265338 0.000000 -1.972104 -0.552263 -0.770257 -0.318857 0.583387 0.565355
3.265338 2.000000 -1.972104 -0.552263 0.770257 -0.318857 0.583386 0.199774
2.221970 0.000000 -3.015472 0.318857 -0.770257 0.552263 0.000129 0.565355
2.221970 2.000000 -3.015472 0.318857 0.770257 0.552263 0.000129 0.199774
2.603870 2.000000 -3.117802 0.000000 0.770257 0.637715 0.916676 0.199774
2.985769 0.000000 -3.015472 -0.318857 -0.770257 0.552263 0.833354 0.565355
2.985769 2.000000 -3.015472 -0.318857 0.770257 0.552263 0.833354 0.199774
1.942401 0.000000 -1.972104 0.552263 -0.770257 -0.318857 0.250097 0.565355
1.942401 2.000000 -1.972104 0.552263 0.770257 -0.318857 0.250097 0.199774
2.985769 0.000000 -1.692535 -0.318857 -0.770257 -0.552263 0.500064 0.565355
2.221970 2.000000 -3.015472 0.318857 0.770257 0.552263 0.999999 0.199774
2.603870 0.000000 -3.117802 0.000000 -0.770257 0.637715 0.916677 0.565355
3.265338 0.000000 -2.735903 -0.552263 -0.770257 0.318857 0.750032 0.565355
1.840072 0.000000 -2.354003 0.637715 -0.770257 0.000000 0.166774 0.565355
3.469895 0.000000 -2.854003 0.000000 -1.000000 0.000000 1.061418 0.305990
3.265338 0.000000 -2.735903 0.000000 -1.000000 0.000000 1.065104 0.292235
2.985769 0.000000 -3.015472 0.000000 -1.000000 0.000000 1.088940 0.292235
3.103870 0.000000 -3.220029 0.000000 -1.000000 0.000000 1.092626 0.305990
2.603870 0.000000 -3.117802 0.000000 -1.000000 0.000000 1.109583 0.280317
2.603870 0.000000 -3.354003 0.000000 -1.000000 0.000000 1.119652 0.290387
2.103869 0.000000 -3.220028 0.000000 -1.000000 -0.000000 1.135256 0.263360
2.221970 0.000000 -3.015472 0.000000 -1.000000 -0.000000 1.121501 0.259675
1.737844 0.000000 -2.854003 -0.000000 -1.000000 -0.000000 1.135256 0.232153
1.942401 0.000000 -2.735902 -0.000000 -1.000000 -0.000000 1.121501 0.235838
1.840072 0.000000 -2.354003 0.000000 -1.000000 -0.000000 1.109583 0.215196
1.603870 0.000000 -2.354003 0.000000 -1.000000 -0.000000 1.119652 0.205126
1.942401 0.000000 -1.972104 0.000000 -1.000000 -0.000000 1.088940 0.203278
1.737845 0.000000 -1.854003 0.000000 -1.000000 -0.000000 1.092626 0.189523
2.103870 0.000000 -1.487978 -0.000000 -1.000000 0.000000 1.061418 0.189523
2.221971 0.000000 -1.692535 -0.000000 -1.000000 0.000000 1.065104 0.203278
2.603870 0.000000 -1.590205 -0.000000 -1.000000 0.000000 1.044461 0.215196
2.603870 0.000000 -1.354003 -0.000000 -1.000000 0.000000 1.034392 0.205126
2.985769 0.000000 -1.692535 -0.000000 -1.000000 0.000000 1.032543 0.235838
2.103869 2.000000 -3.220028 -0.378552 0.653218 -0.655721 0.083333 1.000000
3.469895 2.000000 -2.854003 0.000000 1.000000 -0.000000 0.449885 0.095478
3.103870 2.000000 -1.487978 0.000000 1.000000 0.000000 0.994003 0.088389
1.737845 2.000000 -1.854003 0.000000 1.000000 0.000000 0.549718 0.175557
2.103869 2.000000 -3.220028 -0.000000 1.000000 0.000000 0.006492 0.007873
2.221970 0.000000 -3.015472 0.318857 -0.770257 0.552263 0.999999 0.565355
3 0 1 2
3 3 4 1
3 5 6 4
3 7 8 6
3 9 10 8
3 11 12 10
3 13 14 12
3 15 16 14
3 17 18 16
3 19 20 18
3 21 22 23
3 24 25 20
3 25 26 27
3 28 29 30
3 31 32 33
3 34 32 35
3 36 37 38
3 39 37 40
3 41 42 39
3 43 44 45
3 46 47 43
3 48 49 46
3 50 51 52
3 50 53 54
3 55 53 56
3 57 33 58
3 30 59 60
3 61 62 63
3 64 65 66
3 23 67 68
3 63 69 70
3 66 71 72
3 73 74 75
3 68 76 77
3 70 78 21
3 79 80 73
3 75 81 61
3 77 82 64
3 83 59 84
3 83 85 86
3 86 87 88
3 89 87 90
3 91 90 92
3 91 93 94
3 94 95 96
3 97 95 98
3 97 99 100
3 100 101 28
3 0 3 1
3 3 5 4
3 5 7 6
3 7 9 8
3 9 11 10
3 11 13 12
3 13 15 14
3 15 17 16
3 17 19 18
3 19 24 20
3 21 78 22
3 24 102 25
3 25 102 26
3 28 101 29
3 31 35 32
3 34 103 32
3 36 40 37
3 39 42 37
3 41 104 42
3 43 47 44
3 46 49 47
3 48 105 49
3 50 54 51
3 50 56 53
3 55 106 53
3 57 31 33
3 30 29 59
3 61 81 62
3 64 82 65
3 23 22 67
3 63 62 69
3 66 65 71
3 73 80 74
3 68 67 76
3 70 69 78
3 79 107 80
3 75 74 81
3 77 76 82
3 83 60 59
3 83 84 85
3 86 85 87
3 89 88 87
3 91 89 90
3 91 92 93
3 94 93 95
3 97 96 95
3 97 98 99
3 100 99 101
