ply
format ascii 1.0
comment Created by Blender 2.82 (sub 7) - www.blender.org, source file: 'monkey_test.blend'
element vertex 24
property float x
property float y
property float z
property float nx
property float ny
property float nz
property float s
property float t
element face 12
property list uchar uint vertex_indices
end_header
-1.500000 3.000065 0.146439 -1.000000 0.000000 0.000000 0.625000 0.000000
-1.500000 0.000065 -0.150000 -1.000000 0.000000 0.000000 0.375000 0.250000
-1.500000 0.000065 0.146439 -1.000000 0.000000 0.000000 0.375000 0.000000
-1.500000 3.000065 -0.150000 -0.000000 0.000000 -1.000000 0.625000 0.250000
1.500000 0.000065 -0.150001 -0.000000 0.000000 -1.000000 0.375000 0.500000
-1.500000 0.000065 -0.150000 -0.000000 0.000000 -1.000000 0.375000 0.250000
1.500000 3.000065 -0.150001 1.000000 0.000000 0.000001 0.625000 0.500000
1.500000 0.000065 0.146438 1.000000 0.000000 0.000001 0.375000 0.750000
1.500000 0.000065 -0.150001 1.000000 0.000000 0.000001 0.375000 0.500000
1.500000 3.000065 0.146438 0.000000 0.000000 1.000000 0.625000 0.750000
-1.500000 0.000065 0.146439 0.000000 0.000000 1.000000 0.375000 1.000000
1.500000 0.000065 0.146438 0.000000 0.000000 1.000000 0.375000 0.750000
-1.500000 0.000065 -0.150000 0.000000 -1.000000 -0.000000 0.125000 0.500000
1.500000 0.000065 0.146438 0.000000 -1.000000 -0.000000 0.375000 0.750000
-1.500000 0.000065 0.146439 0.000000 -1.000000 -0.000000 0.125000 0.750000
-1.500000 3.000065 -0.150000 0.000000 1.000000 0.000000 0.875000 0.500000
1.500000 3.000065 0.146438 0.000000 1.000000 0.000000 0.625000 0.750000
1.500000 3.000065 -0.150001 0.000000 1.000000 0.000000 0.625000 0.500000
-1.500000 3.000065 -0.150000 -1.000000 0.000000 0.000000 0.625000 0.250000
1.500000 3.000065 -0.150001 -0.000000 0.000000 -1.000000 0.625000 0.500000
1.500000 3.000065 0.146438 1.000000 -0.000000 0.000001 0.625000 0.750000
-1.500000 3.000065 0.146439 0.000000 -0.000000 1.000000 0.625000 1.000000
1.500000 0.000065 -0.150001 -0.000000 -1.000000 -0.000000 0.375000 0.500000
-1.500000 3.000065 0.146439 0.000000 1.000000 0.000000 0.875000 0.750000
3 0 1 2
3 3 4 5
3 6 7 8
3 9 10 11
3 12 13 14
3 15 16 17
3 0 18 1
3 3 19 4
3 6 20 7
3 9 21 10
3 12 22 13
3 15 23 16
