ply
format ascii 1.0
comment Created by Blender 2.82 (sub 7) - www.blender.org, source file: 'monkey_test.blend'
element vertex 24
property float x
property float y
property float z
property float nx
property float ny
property float nz
property float s
property float t
element face 12
property list uchar uint vertex_indices
end_header
-3.694669 3.000065 2.082406 -0.905367 0.000000 -0.424631 0.625000 0.000000
-3.568792 0.000065 1.814021 -0.905367 0.000000 -0.424631 0.375000 0.250000
-3.694669 0.000065 2.082406 -0.905367 0.000000 -0.424631 0.375000 0.000000
-3.568792 3.000065 1.814021 0.424630 0.000000 -0.905367 0.625000 0.250000
-0.852691 0.000065 3.087911 0.424630 0.000000 -0.905367 0.375000 0.500000
-3.568792 0.000065 1.814021 0.424630 0.000000 -0.905367 0.375000 0.250000
-0.852691 3.000065 3.087911 0.905367 0.000000 0.424631 0.625000 0.500000
-0.978568 0.000065 3.356297 0.905367 0.000000 0.424631 0.375000 0.750000
-0.852691 0.000065 3.087911 0.905367 0.000000 0.424631 0.375000 0.500000
-0.978568 3.000065 3.356297 -0.424630 0.000000 0.905367 0.625000 0.750000
-3.694669 0.000065 2.082406 -0.424630 0.000000 0.905367 0.375000 1.000000
-0.978568 0.000065 3.356297 -0.424630 0.000000 0.905367 0.375000 0.750000
-3.568792 0.000065 1.814021 0.000000 -1.000000 -0.000000 0.125000 0.500000
-0.978568 0.000065 3.356297 0.000000 -1.000000 -0.000000 0.375000 0.750000
-3.694669 0.000065 2.082406 0.000000 -1.000000 -0.000000 0.125000 0.750000
-3.568792 3.000065 1.814021 0.000000 1.000000 0.000000 0.875000 0.500000
-0.978568 3.000065 3.356297 0.000000 1.000000 0.000000 0.625000 0.750000
-0.852691 3.000065 3.087911 0.000000 1.000000 0.000000 0.625000 0.500000
-3.568792 3.000065 1.814021 -0.905367 0.000000 -0.424631 0.625000 0.250000
-0.852691 3.000065 3.087911 0.424630 0.000000 -0.905367 0.625000 0.500000
-0.978568 3.000065 3.356297 0.905367 -0.000000 0.424631 0.625000 0.750000
-3.694669 3.000065 2.082406 -0.424630 0.000000 0.905367 0.625000 1.000000
-0.852691 0.000065 3.087911 0.000000 -1.000000 -0.000000 0.375000 0.500000
-3.694669 3.000065 2.082406 0.000000 1.000000 0.000000 0.875000 0.750000
3 0 1 2
3 3 4 5
3 6 7 8
3 9 10 11
3 12 13 14
3 15 16 17
3 0 18 1
3 3 19 4
3 6 20 7
3 9 21 10
3 12 22 13
3 15 23 16
