ply
format ascii 1.0
comment Created by Blender 2.82 (sub 7) - www.blender.org, source file: 'monkey_test.blend'
element vertex 168
property float x
property float y
property float z
property float nx
property float ny
property float nz
property float s
property float t
element face 96
property list uchar uint vertex_indices
end_header
0.000000 2.000000 -0.999999 0.258819 0.000000 -0.965926 0.005828 0.994150
0.500000 0.000000 -0.866025 0.258819 0.000000 -0.965926 0.161741 0.838237
0.000000 0.000000 -0.999999 0.258819 0.000000 -0.965926 0.005828 0.838237
0.500000 2.000000 -0.866025 0.707107 0.000000 -0.707107 0.179490 0.343354
0.866026 0.000000 -0.499999 0.707107 0.000000 -0.707107 0.335403 0.499267
0.500000 0.000000 -0.866025 0.707107 0.000000 -0.707107 0.335403 0.343354
0.866026 2.000000 -0.499999 0.965926 0.000000 -0.258819 0.005828 0.829359
1.000000 0.000000 0.000001 0.965926 0.000000 -0.258819 0.161741 0.673445
0.866026 0.000000 -0.499999 0.965926 0.000000 -0.258819 0.005828 0.673446
1.000000 2.000000 0.000001 0.965926 -0.000000 0.258819 0.344282 0.343354
0.866026 0.000000 0.500001 0.965926 -0.000000 0.258819 0.500195 0.499267
1.000000 0.000000 0.000001 0.965926 -0.000000 0.258819 0.500195 0.343354
0.866026 2.000000 0.500001 0.707107 0.000000 0.707107 0.179490 0.508145
0.500000 0.000000 0.866026 0.707107 0.000000 0.707107 0.335403 0.664059
0.866026 0.000000 0.500001 0.707107 0.000000 0.707107 0.335403 0.508145
0.500000 2.000000 0.866026 0.258819 0.000000 0.965926 0.005828 0.664567
0.000000 0.000000 1.000001 0.258819 0.000000 0.965926 0.161741 0.508654
0.500000 0.000000 0.866026 0.258819 0.000000 0.965926 0.005828 0.508654
0.000000 2.000000 1.000001 -0.258819 -0.000000 0.965926 0.344282 0.508145
-0.500000 0.000000 0.866026 -0.258819 -0.000000 0.965926 0.500195 0.664059
0.000000 0.000000 1.000001 -0.258819 -0.000000 0.965926 0.500195 0.508145
-0.500000 2.000000 0.866026 -0.707107 -0.000000 0.707107 0.509073 0.343354
-0.866025 0.000000 0.500001 -0.707107 -0.000000 0.707107 0.664987 0.499267
-0.500000 0.000000 0.866026 -0.707107 -0.000000 0.707107 0.664987 0.343354
-0.866025 2.000000 0.500001 -0.965926 -0.000000 0.258820 0.509073 0.508145
-1.000000 0.000000 0.000001 -0.965926 -0.000000 0.258820 0.664987 0.664059
-0.866025 0.000000 0.500001 -0.965926 -0.000000 0.258820 0.664987 0.508145
-1.000000 2.000000 0.000001 -0.965926 -0.000000 -0.258819 0.179490 0.672937
-0.866026 0.000000 -0.499999 -0.965926 -0.000000 -0.258819 0.335403 0.828850
-1.000000 0.000000 0.000001 -0.965926 -0.000000 -0.258819 0.335403 0.672937
0.381899 2.000000 0.661469 -0.258819 0.000000 -0.965926 0.005828 0.499776
0.000000 0.000000 0.763799 -0.258819 0.000000 -0.965926 0.161741 0.343862
0.000000 2.000000 0.763799 -0.258819 0.000000 -0.965926 0.005828 0.343862
-0.866026 2.000000 -0.499999 -0.707107 0.000000 -0.707107 0.344282 0.672937
-0.500000 0.000000 -0.866024 -0.707107 0.000000 -0.707107 0.500195 0.828850
-0.866026 0.000000 -0.499999 -0.707107 0.000000 -0.707107 0.500195 0.672937
-0.500000 0.000000 -0.866024 -0.258820 0.000000 -0.965926 0.829778 0.343354
0.000000 2.000000 -0.999999 -0.258820 0.000000 -0.965926 0.673865 0.499267
0.000000 0.000000 -0.999999 -0.258820 0.000000 -0.965926 0.829778 0.499267
0.500000 0.000000 0.866026 -0.000000 -1.000000 0.000000 0.528857 0.082163
0.661469 0.000000 0.381900 -0.000000 -1.000000 0.000000 0.311366 0.140589
0.866026 0.000000 0.500001 -0.000000 -1.000000 0.000000 0.361140 0.082163
0.000000 2.000000 -0.763797 0.000000 1.000000 -0.000000 0.834292 0.287176
0.500000 2.000000 -0.866025 0.000000 1.000000 -0.000000 0.631396 0.226827
0.000000 2.000000 -0.999999 0.000000 1.000000 -0.000000 0.812907 0.226914
0.661469 2.000000 -0.381898 -0.000000 1.000000 0.000000 0.557017 0.287043
0.381899 2.000000 -0.661468 -0.000000 1.000000 0.000000 0.695654 0.287109
0.661469 2.000000 -0.381898 0.000000 1.000000 -0.000000 0.556588 0.161423
1.000000 2.000000 0.000001 0.000000 1.000000 -0.000000 0.630982 0.221628
0.866026 2.000000 -0.499999 0.000000 1.000000 -0.000000 0.449471 0.221742
0.661469 2.000000 0.381900 0.000000 1.000000 -0.000000 0.833862 0.161250
0.763798 2.000000 0.000001 0.000000 1.000000 -0.000000 0.695225 0.161336
0.381899 2.000000 0.661469 0.000000 1.000000 -0.000000 0.972500 0.161163
0.866026 2.000000 0.500001 0.000000 1.000000 -0.000000 0.812492 0.221514
0.000000 2.000000 0.763799 0.000000 1.000000 -0.000000 0.165295 0.226673
0.500000 2.000000 0.866026 0.000000 1.000000 -0.000000 0.005186 0.286873
0.381899 2.000000 0.661469 0.000000 1.000000 -0.000000 0.026657 0.226628
-0.381899 2.000000 0.661469 0.000000 1.000000 -0.000000 0.303932 0.226718
0.000000 2.000000 1.000001 0.000000 1.000000 -0.000000 0.186697 0.286931
-0.661468 2.000000 0.381900 0.000000 1.000000 0.000000 0.442570 0.226763
-0.500000 2.000000 0.866026 0.000000 1.000000 0.000000 0.368208 0.286990
-0.763798 2.000000 0.000001 0.000000 1.000000 0.000000 0.305079 0.221365
-0.866025 2.000000 0.500001 0.000000 1.000000 0.000000 0.551024 0.161402
-0.661468 2.000000 0.381900 0.000000 1.000000 0.000000 0.443716 0.221528
-0.866026 2.000000 -0.499999 -0.000000 1.000000 0.000000 0.188002 0.160976
-1.000000 2.000000 0.000001 -0.000000 1.000000 0.000000 0.369513 0.161189
-0.381899 2.000000 -0.661468 0.000000 1.000000 0.000000 0.027804 0.221040
-0.661469 2.000000 -0.381898 0.000000 1.000000 0.000000 0.166441 0.221202
-0.381899 2.000000 -0.661468 -0.000000 1.000000 -0.000000 0.972930 0.287243
-0.500000 2.000000 -0.866024 -0.000000 1.000000 -0.000000 0.994418 0.227002
0.763798 0.000000 0.000001 0.000000 -1.000000 0.000000 0.183264 0.140589
1.000000 0.000000 0.000001 0.000000 -1.000000 0.000000 0.193422 0.082163
0.661469 2.000000 -0.381898 -0.965926 -0.000000 0.258819 0.509073 0.672937
0.763798 0.000000 0.000001 -0.965926 -0.000000 0.258819 0.664987 0.828850
0.763798 2.000000 0.000001 -0.965926 -0.000000 0.258819 0.664987 0.672937
-0.763798 2.000000 0.000001 0.965926 0.000000 0.258819 0.673865 0.508145
-0.661469 0.000000 -0.381898 0.965926 0.000000 0.258819 0.829778 0.664059
-0.661469 2.000000 -0.381898 0.965926 0.000000 0.258819 0.829778 0.508145
0.000000 2.000000 0.763799 0.258819 0.000000 -0.965926 0.673865 0.672937
-0.381899 0.000000 0.661469 0.258819 0.000000 -0.965926 0.829778 0.828850
-0.381899 2.000000 0.661469 0.258819 0.000000 -0.965926 0.829778 0.672937
0.763798 2.000000 0.000001 -0.965926 0.000000 -0.258819 0.179490 0.837728
0.661469 0.000000 0.381900 -0.965926 0.000000 -0.258819 0.335403 0.993642
0.661469 2.000000 0.381900 -0.965926 0.000000 -0.258819 0.335403 0.837728
-0.661469 2.000000 -0.381898 0.707107 -0.000000 0.707106 0.839262 0.837937
-0.381899 0.000000 -0.661468 0.707107 -0.000000 0.707106 0.995175 0.993850
-0.381899 2.000000 -0.661468 0.707107 -0.000000 0.707106 0.995175 0.837937
0.000000 2.000000 -0.763797 -0.258819 0.000000 0.965926 0.344282 0.837728
0.381899 0.000000 -0.661468 -0.258819 0.000000 0.965926 0.500195 0.993642
0.381899 2.000000 -0.661468 -0.258819 0.000000 0.965926 0.500195 0.837728
-0.381899 2.000000 0.661469 0.707106 -0.000000 -0.707107 0.838656 0.343354
-0.661468 0.000000 0.381900 0.707106 -0.000000 -0.707107 0.994569 0.499267
-0.661468 2.000000 0.381900 0.707106 -0.000000 -0.707107 0.994569 0.343354
0.661469 2.000000 0.381900 -0.707107 0.000000 -0.707107 0.509073 0.837728
0.381899 0.000000 0.661469 -0.707107 0.000000 -0.707107 0.664987 0.993642
0.381899 2.000000 0.661469 -0.707107 0.000000 -0.707107 0.664987 0.837728
-0.381899 2.000000 -0.661468 0.258819 -0.000000 0.965926 0.838656 0.508145
0.000000 0.000000 -0.763798 0.258819 -0.000000 0.965926 0.994569 0.664059
0.000000 2.000000 -0.763797 0.258819 -0.000000 0.965926 0.994569 0.508145
0.381899 2.000000 -0.661468 -0.707107 0.000000 0.707107 0.673865 0.837728
0.661469 0.000000 -0.381898 -0.707107 0.000000 0.707107 0.829778 0.993642
0.661469 2.000000 -0.381898 -0.707107 0.000000 0.707107 0.829778 0.837728
-0.661468 2.000000 0.381900 0.965926 0.000000 -0.258819 0.838656 0.672937
-0.763798 0.000000 0.000001 0.965926 0.000000 -0.258819 0.994569 0.828850
-0.763798 2.000000 0.000001 0.965926 0.000000 -0.258819 0.994569 0.672937
0.866026 0.000000 -0.499999 0.000000 -1.000000 0.000000 0.025705 0.082163
0.661469 0.000000 -0.381898 0.000000 -1.000000 0.000000 0.055162 0.140589
0.866026 0.000000 -0.499999 0.000000 -1.000000 0.000000 0.045541 0.069720
0.381899 0.000000 -0.661468 0.000000 -1.000000 0.000000 0.205545 0.011842
0.500000 0.000000 -0.866025 0.000000 -1.000000 0.000000 0.156773 0.069720
0.000000 0.000000 -0.763798 0.000000 -1.000000 0.000000 0.333666 0.011842
0.000000 0.000000 -0.999999 0.000000 -1.000000 0.000000 0.324514 0.069720
-0.500000 0.000000 -0.866024 0.000000 -1.000000 -0.000000 0.492256 0.069720
-0.381899 0.000000 -0.661468 0.000000 -1.000000 -0.000000 0.461787 0.011842
-0.866026 0.000000 -0.499999 -0.000000 -1.000000 -0.000000 0.738439 0.009125
-0.381899 0.000000 -0.661468 -0.000000 -1.000000 -0.000000 0.878627 0.070580
-0.661469 0.000000 -0.381898 -0.000000 -1.000000 -0.000000 0.752464 0.070580
-0.763798 0.000000 0.000001 0.000000 -1.000000 -0.000000 0.626302 0.070580
-1.000000 0.000000 0.000001 0.000000 -1.000000 -0.000000 0.573261 0.009125
-0.661468 0.000000 0.381900 0.000000 -1.000000 -0.000000 0.500140 0.070580
-0.866025 0.000000 0.500001 0.000000 -1.000000 -0.000000 0.472151 0.009125
-0.500000 0.000000 0.866026 -0.000000 -1.000000 0.000000 0.618382 0.140625
-0.661468 0.000000 0.381900 -0.000000 -1.000000 0.000000 0.539531 0.081995
-0.381899 0.000000 0.661469 -0.000000 -1.000000 0.000000 0.667646 0.081995
0.000000 0.000000 0.763799 -0.000000 -1.000000 0.000000 0.795762 0.081995
0.000000 0.000000 1.000001 -0.000000 -1.000000 0.000000 0.786116 0.140625
0.381899 0.000000 0.661469 -0.000000 -1.000000 0.000000 0.923877 0.081995
0.500000 0.000000 0.866026 -0.000000 -1.000000 0.000000 0.953851 0.140625
0.500000 2.000000 -0.866025 0.258819 0.000000 -0.965926 0.161741 0.994150
0.866026 2.000000 -0.499999 0.707107 0.000000 -0.707107 0.179490 0.499267
1.000000 2.000000 0.000001 0.965926 0.000000 -0.258819 0.161741 0.829359
0.866026 2.000000 0.500001 0.965926 0.000000 0.258819 0.344282 0.499267
0.500000 2.000000 0.866026 0.707107 0.000000 0.707107 0.179490 0.664059
0.000000 2.000000 1.000001 0.258819 0.000000 0.965926 0.161741 0.664567
-0.500000 2.000000 0.866026 -0.258819 -0.000000 0.965926 0.344282 0.664059
-0.866025 2.000000 0.500001 -0.707107 -0.000000 0.707107 0.509073 0.499267
-0.866025 2.000000 0.500001 -0.965926 0.000000 0.258819 0.509073 0.508145
-1.000000 2.000000 0.000001 -0.965926 0.000000 0.258819 0.509073 0.664059
-1.000000 0.000000 0.000001 -0.965926 0.000000 0.258819 0.664987 0.664059
-0.866026 2.000000 -0.499999 -0.965926 0.000000 -0.258819 0.179490 0.828850
0.381899 0.000000 0.661469 -0.258819 0.000000 -0.965926 0.161741 0.499776
-0.866026 2.000000 -0.499999 -0.707107 -0.000000 -0.707106 0.344282 0.672937
-0.500000 2.000000 -0.866024 -0.707107 -0.000000 -0.707106 0.344282 0.828850
-0.500000 0.000000 -0.866024 -0.707107 -0.000000 -0.707106 0.500195 0.828850
-0.500000 0.000000 -0.866024 -0.258819 -0.000000 -0.965926 0.829778 0.343354
-0.500000 2.000000 -0.866024 -0.258819 -0.000000 -0.965926 0.673865 0.343354
0.000000 2.000000 -0.999999 -0.258819 -0.000000 -0.965926 0.673865 0.499267
0.381899 0.000000 0.661469 0.000000 -1.000000 0.000000 0.439468 0.140589
0.866026 2.000000 -0.499999 0.000000 1.000000 -0.000000 0.449885 0.226740
0.500000 2.000000 0.866026 0.000000 1.000000 0.000000 0.994003 0.221401
-0.866025 2.000000 0.500001 0.000000 1.000000 0.000000 0.549718 0.287049
-0.500000 2.000000 -0.866024 -0.000000 1.000000 0.000000 0.006492 0.160763
0.661469 0.000000 -0.381898 -0.965926 0.000000 0.258819 0.509073 0.828850
-0.763798 0.000000 0.000001 0.965926 -0.000000 0.258819 0.673865 0.664059
0.000000 0.000000 0.763799 0.258819 -0.000000 -0.965926 0.673865 0.828850
0.763798 0.000000 0.000001 -0.965926 -0.000000 -0.258819 0.179490 0.993642
-0.661469 0.000000 -0.381898 0.707107 0.000000 0.707106 0.839262 0.993850
0.000000 0.000000 -0.763798 -0.258819 -0.000000 0.965926 0.344282 0.993642
-0.381899 0.000000 0.661469 0.707106 0.000000 -0.707107 0.838656 0.499267
0.661469 0.000000 0.381900 -0.707107 0.000000 -0.707107 0.509073 0.993642
-0.381899 2.000000 -0.661468 0.258820 -0.000000 0.965926 0.838656 0.508145
-0.381899 0.000000 -0.661468 0.258820 -0.000000 0.965926 0.838656 0.664059
0.000000 0.000000 -0.763798 0.258820 -0.000000 0.965926 0.994569 0.664059
0.381899 0.000000 -0.661468 -0.707107 0.000000 0.707107 0.673865 0.993642
-0.661468 0.000000 0.381900 0.965926 -0.000000 -0.258819 0.838656 0.828850
0.661469 0.000000 -0.381898 0.000000 -1.000000 0.000000 0.077425 0.011842
-0.500000 0.000000 -0.866024 -0.000000 -1.000000 0.000000 0.903616 0.009125
-0.866025 0.000000 0.500001 0.000000 -1.000000 0.000000 0.450647 0.140625
3 0 1 2
3 3 4 5
3 6 7 8
3 9 10 11
3 12 13 14
3 15 16 17
3 18 19 20
3 21 22 23
3 24 25 26
3 27 28 29
3 30 31 32
3 33 34 35
3 36 37 38
3 39 40 41
3 42 43 44
3 45 43 46
3 47 48 49
3 50 48 51
3 52 53 50
3 54 55 56
3 57 58 54
3 59 60 57
3 61 62 63
3 61 64 65
3 66 64 67
3 68 44 69
3 41 70 71
3 72 73 74
3 75 76 77
3 78 79 80
3 81 82 83
3 84 85 86
3 87 88 89
3 90 91 92
3 93 94 95
3 96 97 98
3 99 100 101
3 102 103 104
3 105 70 106
3 107 108 109
3 109 110 111
3 112 110 113
3 114 115 116
3 114 117 118
3 118 119 120
3 121 122 123
3 121 124 125
3 125 126 127
3 0 128 1
3 3 129 4
3 6 130 7
3 9 131 10
3 12 132 13
3 15 133 16
3 18 134 19
3 21 135 22
3 136 137 138
3 27 139 28
3 30 140 31
3 141 142 143
3 144 145 146
3 39 147 40
3 42 46 43
3 45 148 43
3 47 51 48
3 50 53 48
3 52 149 53
3 54 58 55
3 57 60 58
3 59 150 60
3 61 65 62
3 61 67 64
3 66 151 64
3 68 42 44
3 41 40 70
3 72 152 73
3 75 153 76
3 78 154 79
3 81 155 82
3 84 156 85
3 87 157 88
3 90 158 91
3 93 159 94
3 160 161 162
3 99 163 100
3 102 164 103
3 105 71 70
3 107 165 108
3 109 108 110
3 112 111 110
3 114 166 115
3 114 116 117
3 118 117 119
3 121 167 122
3 121 123 124
3 125 124 126
