ply
format ascii 1.0
comment Created by Blender 2.83.0 - www.blender.org, source file: 'cached.blend'
element vertex 72
property float x
property float y
property float z
property float nx
property float ny
property float nz
property float s
property float t
element face 48
property list uchar uint vertex_indices
end_header
-2.966020 2.966020 2.966020 -1.000000 0.000000 0.000000 0.202118 0.201343
-2.966020 -2.966020 -2.966020 -1.000000 0.000000 0.000000 0.403311 0.402536
-2.966020 -2.966020 2.966020 -1.000000 0.000000 0.000000 0.202118 0.402536
-2.966020 2.966020 -2.966020 0.000000 0.000000 -1.000000 0.604504 0.402536
2.966020 -2.966020 -2.966020 0.000000 0.000000 -1.000000 0.403311 0.603729
-2.966020 -2.966020 -2.966020 0.000000 0.000000 -1.000000 0.403311 0.402536
2.966020 -2.732986 2.732986 -0.000000 -0.000000 -1.000000 0.626562 0.022575
-2.672557 2.732986 2.732986 -0.000000 -0.000000 -1.000000 0.441176 0.213815
2.966020 2.732986 2.732986 -0.000000 -0.000000 -1.000000 0.441176 0.022575
2.966020 2.966020 2.966020 0.000000 -0.000000 1.000000 0.000925 0.603729
-2.966020 -2.966020 2.966020 0.000000 -0.000000 1.000000 0.202118 0.402536
2.966020 -2.966020 2.966020 0.000000 -0.000000 1.000000 0.202118 0.603729
2.966020 -2.966020 -2.966020 0.000000 -1.000000 0.000000 0.403311 0.603729
-2.966020 -2.966020 2.966020 0.000000 -1.000000 0.000000 0.202118 0.402536
-2.966020 -2.966020 -2.966020 0.000000 -1.000000 0.000000 0.403311 0.402536
1.893034 2.966020 1.893034 0.000000 0.000000 -1.000000 0.179483 0.049937
-1.893034 2.732986 1.893034 0.000000 0.000000 -1.000000 0.010723 0.060324
-1.893034 2.966020 1.893034 0.000000 0.000000 -1.000000 0.010723 0.049937
2.966020 -2.732986 -2.732986 1.000000 0.000000 0.000000 0.894619 0.891175
2.966020 2.966020 -2.966020 1.000000 0.000000 0.000000 0.629969 0.901996
2.966020 2.732986 -2.732986 1.000000 0.000000 0.000000 0.640791 0.891175
2.966020 -2.732986 2.732986 1.000000 0.000000 -0.000000 0.894619 0.637347
2.966020 -2.966020 -2.966020 1.000000 0.000000 -0.000000 0.905440 0.901996
2.966020 2.966020 2.966020 1.000000 -0.000000 0.000000 0.629969 0.626525
2.966020 2.732986 2.732986 1.000000 -0.000000 0.000000 0.640791 0.637347
2.966020 -2.966020 2.966020 1.000000 -0.000000 -0.000000 0.905440 0.626525
-2.672557 2.732986 -2.732986 1.000000 -0.000000 0.000000 0.811948 0.399201
-2.672557 -2.732986 2.732986 1.000000 -0.000000 0.000000 0.626562 0.213815
-2.672557 -2.732986 -2.732986 1.000000 -0.000000 0.000000 0.811948 0.213815
2.966020 -2.732986 -2.732986 0.000000 1.000000 0.000000 0.811948 0.022575
-2.672557 -2.732986 2.732986 0.000000 1.000000 0.000000 0.626562 0.213815
2.966020 -2.732986 2.732986 0.000000 1.000000 0.000000 0.626562 0.022575
1.893034 2.732986 -1.893034 0.000000 -1.000000 0.000000 0.783460 0.554049
-2.672557 2.732986 -2.732986 0.000000 -1.000000 0.000000 0.811948 0.399201
2.966020 2.732986 -2.732986 0.000000 -1.000000 0.000000 0.811948 0.590441
2.966020 2.732986 -2.732986 0.000000 -0.000000 1.000000 0.997334 0.022575
-2.672557 -2.732986 -2.732986 0.000000 -0.000000 1.000000 0.811948 0.213815
2.966020 -2.732986 -2.732986 0.000000 -0.000000 1.000000 0.811948 0.022575
-1.893034 2.966020 -1.893034 0.000000 1.000000 0.000000 0.366919 0.164951
-2.966020 2.966020 2.966020 0.000000 1.000000 0.000000 0.202118 0.201343
-1.893034 2.966020 1.893034 0.000000 1.000000 0.000000 0.238509 0.164951
1.893034 2.966020 -1.893034 -0.000000 1.000000 0.000000 0.366919 0.036541
-2.966020 2.966020 -2.966020 -0.000000 1.000000 0.000000 0.403311 0.201343
1.893034 2.966020 1.893034 -0.000000 1.000000 -0.000000 0.238509 0.036541
2.966020 2.966020 -2.966020 -0.000000 1.000000 -0.000000 0.403311 0.000150
2.966020 2.966020 2.966020 0.000000 1.000000 -0.000000 0.202118 0.000149
-1.893034 2.732986 -1.893034 0.000000 -1.000000 0.000000 0.783460 0.425639
-2.672557 2.732986 2.732986 0.000000 -1.000000 0.000000 0.626562 0.399201
-1.893034 2.966020 -1.893034 0.000000 0.000000 1.000000 0.010723 0.038764
1.893034 2.732986 -1.893034 0.000000 0.000000 1.000000 0.179483 0.028376
1.893034 2.966020 -1.893034 0.000000 0.000000 1.000000 0.179483 0.038764
1.893034 2.966020 -1.893034 -1.000000 -0.000000 -0.000000 0.179483 0.039156
1.893034 2.732986 1.893034 -1.000000 -0.000000 -0.000000 0.010723 0.049544
1.893034 2.966020 1.893034 -1.000000 -0.000000 -0.000000 0.010723 0.039156
-1.893034 2.966020 1.893034 1.000000 0.000000 -0.000000 0.010723 0.027983
-1.893034 2.732986 -1.893034 1.000000 0.000000 -0.000000 0.179483 0.017596
-1.893034 2.966020 -1.893034 1.000000 0.000000 -0.000000 0.179483 0.027983
1.893034 2.732986 1.893034 -0.000000 -1.000000 -0.000000 0.655050 0.554049
2.966020 2.732986 2.732986 -0.000000 -1.000000 -0.000000 0.626562 0.590441
-2.966020 2.966020 -2.966020 -1.000000 0.000000 0.000000 0.403311 0.201343
2.966020 2.966020 -2.966020 0.000000 0.000000 -1.000000 0.604504 0.603729
-2.672557 -2.732986 2.732986 0.000000 0.000000 -1.000000 0.626562 0.213815
-2.966020 2.966020 2.966020 0.000000 0.000000 1.000000 0.000925 0.402536
2.966020 -2.966020 2.966020 0.000000 -1.000000 0.000000 0.202118 0.603729
1.893034 2.732986 1.893034 0.000000 0.000000 -1.000000 0.179483 0.060324
-2.672557 2.732986 2.732986 1.000000 -0.000000 0.000000 0.626562 0.399201
-2.672557 -2.732986 -2.732986 -0.000000 1.000000 0.000000 0.811948 0.213815
-2.672557 2.732986 -2.732986 0.000000 0.000000 1.000000 0.997334 0.213815
-1.893034 2.732986 1.893034 0.000000 -1.000000 0.000000 0.655050 0.425639
-1.893034 2.732986 -1.893034 0.000000 -0.000000 1.000000 0.010723 0.028376
1.893034 2.732986 -1.893034 -1.000000 0.000000 0.000000 0.179483 0.049544
-1.893034 2.732986 1.893034 1.000000 0.000000 0.000000 0.010723 0.017596
3 0 1 2
3 3 4 5
3 6 7 8
3 9 10 11
3 12 13 14
3 15 16 17
3 18 19 20
3 21 22 18
3 20 23 24
3 24 25 21
3 26 27 28
3 29 30 31
3 32 33 34
3 35 36 37
3 38 39 40
3 41 42 38
3 43 44 41
3 40 45 43
3 46 47 33
3 48 49 50
3 51 52 53
3 54 55 56
3 57 34 58
3 47 57 58
3 0 59 1
3 3 60 4
3 6 61 7
3 9 62 10
3 12 63 13
3 15 64 16
3 18 22 19
3 21 25 22
3 20 19 23
3 24 23 25
3 26 65 27
3 29 66 30
3 32 46 33
3 35 67 36
3 38 42 39
3 41 44 42
3 43 45 44
3 40 39 45
3 46 68 47
3 48 69 49
3 51 70 52
3 54 71 55
3 57 32 34
3 47 68 57
