ply
format ascii 1.0
comment Created by Blender 2.83.0 - www.blender.org, source file: 'cached.blend'
element vertex 480
property float x
property float y
property float z
property float nx
property float ny
property float nz
property float s
property float t
element face 160
property list uchar uint vertex_indices
end_header
0.459228 0.927981 -0.379231 0.601492 0.005515 -0.798860 0.000156 0.862070
0.423459 -0.937572 -0.419043 0.601492 0.005515 -0.798860 0.443685 0.887696
0.224464 0.935021 -0.555945 0.601492 0.005515 -0.798860 0.000156 0.945611
0.588257 0.929153 -0.118437 0.896202 0.012930 -0.443458 0.000156 0.781834
0.534410 -0.828756 -0.278513 0.896202 0.012930 -0.443458 0.443685 0.826350
0.459228 0.927981 -0.379231 0.896202 0.012930 -0.443458 0.000156 0.862070
0.570453 0.927981 0.171144 0.998100 0.005372 0.061388 0.000156 0.703115
0.583683 -0.937572 0.119286 0.998100 0.005372 0.061388 0.443684 0.731495
0.588257 0.929153 -0.118437 0.998100 0.005372 0.061388 0.000156 0.781834
0.468660 0.941811 0.362152 0.882632 0.004566 0.470042 0.000155 0.656202
0.493604 -0.937572 0.333571 0.882632 0.004566 0.470042 0.443684 0.669014
0.570453 0.927981 0.171144 0.882632 0.004566 0.470042 0.000156 0.703115
-0.119422 0.927283 0.586481 -0.006249 0.012301 0.999905 0.000155 0.453193
-0.077298 -0.841930 0.608509 -0.006249 0.012301 0.999905 0.443684 0.479839
0.106745 0.930213 0.587858 -0.006249 0.012301 0.999905 0.000155 0.515673
-0.585998 0.934323 0.119720 -0.924345 0.006784 0.381498 0.000155 0.265751
-0.558071 -0.928715 0.220515 -0.924345 0.006784 0.381498 0.443684 0.316751
-0.499299 0.928154 0.329895 -0.924345 0.006784 0.381498 0.000155 0.328232
-0.588934 0.936454 -0.069541 -0.999877 0.001948 0.015533 0.000155 0.218837
-0.592476 -0.922482 -0.064467 -0.999877 0.001948 0.015533 0.443685 0.231652
-0.585998 0.934323 0.119720 -0.999877 0.001948 0.015533 0.000155 0.265751
-0.421293 0.927283 -0.425127 -0.814371 0.005159 -0.580322 0.000156 0.109549
-0.495501 -0.935021 -0.337547 -0.814371 0.005159 -0.580322 0.443685 0.147850
-0.534864 0.918395 -0.265832 -0.814371 0.005159 -0.580322 0.000156 0.172030
-0.295674 1.026100 -0.496766 -0.500646 0.008903 -0.865606 0.000156 0.062636
-0.275560 -0.922482 -0.528442 -0.500646 0.008903 -0.865606 0.443685 0.076586
-0.421293 0.927283 -0.425127 -0.500646 0.008903 -0.865606 0.000156 0.109549
0.245190 -1.382331 -0.009920 0.166050 -0.984874 0.049504 0.699258 0.630404
0.186321 -1.383445 0.165384 0.166050 -0.984874 0.049504 0.713118 0.664006
0.000000 -1.423172 -0.000000 0.166050 -0.984874 0.049504 0.665684 0.665533
-0.211607 -1.395058 0.027155 -0.140406 -0.987488 -0.071784 0.640163 0.693104
-0.101182 -1.395024 -0.189298 -0.140406 -0.987488 -0.071784 0.631017 0.651471
0.000000 -1.423172 -0.000000 -0.140406 -0.987488 -0.071784 0.665684 0.665533
0.186321 -1.383445 0.165384 0.085250 -0.986349 0.140886 0.713118 0.664006
-0.035627 -1.395914 0.212390 0.085250 -0.986349 0.140886 0.684313 0.697278
0.000000 -1.423172 -0.000000 0.085250 -0.986349 0.140886 0.665684 0.665533
-0.101182 -1.395024 -0.189298 0.006531 -0.988590 -0.150488 0.631017 0.651471
0.073979 -1.388260 -0.226133 0.006531 -0.988590 -0.150488 0.650898 0.620621
0.000000 -1.423172 -0.000000 0.006531 -0.988590 -0.150488 0.665684 0.665533
0.073979 -1.388260 -0.226133 0.159573 -0.982166 -0.099429 0.650898 0.620621
0.245190 -1.382331 -0.009920 0.159573 -0.982166 -0.099429 0.699258 0.630404
0.000000 -1.423172 -0.000000 0.159573 -0.982166 -0.099429 0.665684 0.665533
-0.035627 -1.395914 0.212390 -0.117437 -0.987298 0.107008 0.684313 0.697278
-0.211607 -1.395058 0.027155 -0.117437 -0.987298 0.107008 0.640163 0.693104
0.000000 -1.423172 -0.000000 -0.117437 -0.987298 0.107008 0.665684 0.665533
-0.077298 -0.841930 0.608509 -0.268275 -0.252725 0.929601 0.781265 0.849751
-0.258347 -1.052112 0.499119 -0.268275 -0.252725 0.929601 0.696650 0.816351
-0.047464 -1.043284 0.562378 -0.268275 -0.252725 0.929601 0.752082 0.792712
-0.077298 -0.841930 0.608509 0.106218 -0.207077 0.972542 0.781265 0.849751
-0.047464 -1.043284 0.562378 0.106218 -0.207077 0.972542 0.752082 0.792712
0.157574 -1.052417 0.538039 0.106218 -0.207077 0.972542 0.792731 0.750615
0.534410 -0.828756 -0.278513 0.846838 -0.277477 -0.453732 0.752674 0.461611
0.579876 -0.959493 -0.113705 0.846838 -0.277477 -0.453732 0.782789 0.521313
0.423459 -0.937572 -0.419043 0.846838 -0.277477 -0.453732 0.689147 0.475741
0.275382 -1.186667 -0.403577 0.302809 -0.782018 -0.544751 0.654419 0.552087
0.240443 -1.340998 -0.201447 0.302809 -0.782018 -0.544751 0.676723 0.604107
0.073979 -1.388260 -0.226133 0.302809 -0.782018 -0.544751 0.650898 0.620621
0.423459 -0.937572 -0.419043 0.663551 -0.432366 -0.610540 0.689147 0.475741
0.468173 -1.104713 -0.252083 0.663551 -0.432366 -0.610540 0.716911 0.539654
0.275382 -1.186667 -0.403577 0.663551 -0.432366 -0.610540 0.654419 0.552087
0.415246 -1.250032 -0.122178 0.520261 -0.832040 -0.192453 0.716857 0.589261
0.245190 -1.382331 -0.009920 0.520261 -0.832040 -0.192453 0.699258 0.630404
0.240443 -1.340998 -0.201447 0.520261 -0.832040 -0.192453 0.676723 0.604107
0.579876 -0.959493 -0.113705 0.865638 -0.442312 -0.234586 0.782789 0.521313
0.534588 -1.107134 -0.002443 0.865638 -0.442312 -0.234586 0.769113 0.579247
0.468173 -1.104713 -0.252083 0.865638 -0.442312 -0.234586 0.716911 0.539654
0.415246 -1.250032 -0.122178 0.738711 -0.670934 0.064443 0.716857 0.589261
0.534588 -1.107134 -0.002443 0.738711 -0.670934 0.064443 0.769113 0.579247
0.437689 -1.194172 0.202134 0.738711 -0.670934 0.064443 0.773953 0.638562
0.437689 -1.194172 0.202134 0.573224 -0.797675 0.187427 0.773953 0.638562
0.186321 -1.383445 0.165384 0.573224 -0.797675 0.187427 0.713118 0.664006
0.245190 -1.382331 -0.009920 0.573224 -0.797675 0.187427 0.699258 0.630404
0.583683 -0.937572 0.119286 0.875489 -0.422227 0.235041 0.836527 0.579599
0.437689 -1.194172 0.202134 0.875489 -0.422227 0.235041 0.773953 0.638562
0.534588 -1.107134 -0.002443 0.875489 -0.422227 0.235041 0.769113 0.579247
0.493604 -0.937572 0.333571 0.716735 -0.435259 0.544830 0.856407 0.651519
0.313302 -1.182291 0.375259 0.716735 -0.435259 0.544830 0.778810 0.687049
0.437689 -1.194172 0.202134 0.716735 -0.435259 0.544830 0.773953 0.638562
0.321682 -0.890426 0.509432 0.503755 -0.372717 0.779303 0.861970 0.728499
0.157574 -1.052417 0.538039 0.503755 -0.372717 0.779303 0.792731 0.750615
0.313302 -1.182291 0.375259 0.503755 -0.372717 0.779303 0.778810 0.687049
-0.047464 -1.043284 0.562378 -0.099457 -0.617954 0.779898 0.752082 0.792712
-0.162673 -1.296075 0.347386 -0.099457 -0.617954 0.779898 0.687647 0.741841
0.076759 -1.284569 0.387036 -0.099457 -0.617954 0.779898 0.729739 0.718604
-0.258347 -1.052112 0.499119 -0.422804 -0.592357 0.685821 0.696650 0.816351
-0.376932 -1.178402 0.316933 -0.422804 -0.592357 0.685821 0.643939 0.779379
-0.162673 -1.296075 0.347386 -0.422804 -0.592357 0.685821 0.687647 0.741841
-0.376932 -1.178402 0.316933 -0.483592 -0.775475 0.405928 0.643939 0.779379
-0.375050 -1.290006 0.105969 -0.483592 -0.775475 0.405928 0.619357 0.732752
-0.162673 -1.296075 0.347386 -0.483592 -0.775475 0.405928 0.687647 0.741841
-0.376932 -1.178402 0.316933 -0.807612 -0.430097 0.403459 0.643939 0.779379
-0.558071 -0.928715 0.220515 -0.807612 -0.430097 0.403459 0.570945 0.830387
-0.522645 -1.110633 0.097500 -0.807612 -0.430097 0.403459 0.579208 0.768899
-0.592476 -0.922482 -0.064467 -0.908098 -0.410073 -0.084843 0.506124 0.772170
-0.498862 -1.102342 -0.197118 -0.908098 -0.410073 -0.084843 0.537411 0.707149
-0.522645 -1.110633 0.097500 -0.908098 -0.410073 -0.084843 0.579208 0.768899
-0.495501 -0.935021 -0.337547 -0.697556 -0.452360 -0.555684 0.475508 0.686500
-0.297824 -1.106958 -0.445726 -0.697556 -0.452360 -0.555684 0.536721 0.626938
-0.498862 -1.102342 -0.197118 -0.697556 -0.452360 -0.555684 0.537411 0.707149
-0.297824 -1.106958 -0.445726 -0.523090 -0.660728 -0.538345 0.536721 0.626938
-0.164611 -1.296887 -0.342059 -0.523090 -0.660728 -0.538345 0.592617 0.633826
-0.352642 -1.296357 -0.160006 -0.523090 -0.660728 -0.538345 0.589038 0.687099
-0.297824 -1.106958 -0.445726 -0.265413 -0.598663 -0.755750 0.536721 0.626938
0.008131 -1.186797 -0.489931 -0.265413 -0.598663 -0.755750 0.593798 0.577133
-0.164611 -1.296887 -0.342059 -0.265413 -0.598663 -0.755750 0.592617 0.633826
0.008131 -1.186797 -0.489931 -0.010786 -0.795994 -0.605208 0.593798 0.577133
0.073979 -1.388260 -0.226133 -0.010786 -0.795994 -0.605208 0.650898 0.620621
-0.164611 -1.296887 -0.342059 -0.010786 -0.795994 -0.605208 0.592617 0.633826
-0.352642 -1.296357 -0.160006 -0.377794 -0.905577 -0.192877 0.589038 0.687099
-0.101182 -1.395024 -0.189298 -0.377794 -0.905577 -0.192877 0.631017 0.651471
-0.211607 -1.395058 0.027155 -0.377794 -0.905577 -0.192877 0.640163 0.693104
0.240443 -1.340998 -0.201447 0.295607 -0.932275 -0.208517 0.676723 0.604107
0.245190 -1.382331 -0.009920 0.295607 -0.932275 -0.208517 0.699258 0.630404
0.073979 -1.388260 -0.226133 0.295607 -0.932275 -0.208517 0.650898 0.620621
-0.120322 1.395990 0.180074 -0.155057 0.986864 0.045356 0.654538 0.256718
0.000000 1.423172 -0.000000 -0.155057 0.986864 0.045356 0.665684 0.221844
-0.197863 1.395850 -0.081958 -0.155057 0.986864 0.045356 0.697968 0.239777
0.164653 1.377910 -0.202228 0.158819 0.983130 -0.090728 0.677955 0.170567
0.000000 1.423172 -0.000000 0.158819 0.983130 -0.090728 0.665684 0.221844
0.240720 1.385970 0.018258 0.158819 0.983130 -0.090728 0.634868 0.190128
0.077963 1.383591 0.232257 0.019139 0.986651 0.161718 0.619297 0.235347
0.000000 1.423172 -0.000000 0.019139 0.986651 0.161718 0.665684 0.221844
-0.120322 1.395990 0.180074 0.019139 0.986651 0.161718 0.654538 0.256718
-0.025128 1.386121 -0.237422 0.072486 0.984245 -0.161269 0.702690 0.196942
0.000000 1.423172 -0.000000 0.072486 0.984245 -0.161269 0.665684 0.221844
0.164653 1.377910 -0.202228 0.072486 0.984245 -0.161269 0.677955 0.170567
0.240720 1.385970 0.018258 0.142777 0.982513 0.119510 0.634868 0.190128
0.000000 1.423172 -0.000000 0.142777 0.982513 0.119510 0.665684 0.221844
0.077963 1.383591 0.232257 0.142777 0.982513 0.119510 0.619297 0.235347
-0.197863 1.395850 -0.081958 -0.075765 0.986392 -0.145913 0.697968 0.239777
0.000000 1.423172 -0.000000 -0.075765 0.986392 -0.145913 0.665684 0.221844
-0.025128 1.386121 -0.237422 -0.075765 0.986392 -0.145913 0.702690 0.196942
0.468173 1.104713 -0.252083 0.662045 0.415323 -0.623862 0.639999 0.088391
0.459228 0.927981 -0.379231 0.662045 0.415323 -0.623862 0.664981 0.030953
0.257722 1.116557 -0.467530 0.662045 0.415323 -0.623862 0.715557 0.098059
0.482034 1.184760 -0.085722 0.652510 0.660176 -0.372020 0.610649 0.120785
0.468173 1.104713 -0.252083 0.652510 0.660176 -0.372020 0.639999 0.088391
0.273704 1.255308 -0.325933 0.652510 0.660176 -0.372020 0.683143 0.131460
0.240720 1.385970 0.018258 0.565356 0.793832 -0.224062 0.634868 0.190128
0.482034 1.184760 -0.085722 0.565356 0.793832 -0.224062 0.610649 0.120785
0.164653 1.377910 -0.202228 0.565356 0.793832 -0.224062 0.677955 0.170567
0.482034 1.184760 -0.085722 0.877927 0.398760 -0.265018 0.610649 0.120785
0.588257 0.929153 -0.118437 0.877927 0.398760 -0.265018 0.575801 0.054140
0.468173 1.104713 -0.252083 0.877927 0.398760 -0.265018 0.639999 0.088391
0.266302 1.278968 0.304164 0.562975 0.789316 0.245031 0.580379 0.218845
0.468169 1.194279 0.113171 0.562975 0.789316 0.245031 0.576676 0.154515
0.240720 1.385970 0.018258 0.562975 0.789316 0.245031 0.634868 0.190128
-0.003148 1.247345 0.430393 0.251244 0.665340 0.702993 0.593853 0.280799
0.106689 1.107134 0.523839 0.251244 0.665340 0.702993 0.546443 0.284486
0.266302 1.278968 0.304164 0.251244 0.665340 0.702993 0.580379 0.218845
-0.194742 1.297770 0.327165 -0.073454 0.835548 0.544485 0.639794 0.296477
-0.003148 1.247345 0.430393 -0.073454 0.835548 0.544485 0.593853 0.280799
0.077963 1.383591 0.232257 -0.073454 0.835548 0.544485 0.619297 0.235347
-0.250823 1.112106 0.475604 -0.113198 0.450717 0.885461 0.613677 0.344536
-0.119422 0.927283 0.586481 -0.113198 0.450717 0.885461 0.541556 0.370770
0.106689 1.107134 0.523839 -0.113198 0.450717 0.885461 0.546443 0.284486
-0.472041 1.102008 0.248768 -0.665330 0.398810 0.631100 0.692569 0.355063
-0.499299 0.928154 0.329895 -0.665330 0.398810 0.631100 0.682428 0.415115
-0.250823 1.112106 0.475604 -0.665330 0.398810 0.631100 0.613677 0.344536
-0.472041 1.102008 0.248768 -0.875628 0.310083 0.370303 0.692569 0.355063
-0.585998 0.934323 0.119720 -0.875628 0.310083 0.370303 0.753305 0.393099
-0.499299 0.928154 0.329895 -0.875628 0.310083 0.370303 0.682428 0.415115
-0.405193 1.198617 -0.252889 -0.769596 0.612685 -0.179830 0.769049 0.259192
-0.534523 1.106488 -0.013300 -0.769596 0.612685 -0.179830 0.753396 0.324128
-0.381350 1.298002 -0.016324 -0.769596 0.612685 -0.179830 0.717482 0.282144
-0.295674 1.026100 -0.496766 -0.676496 0.422874 -0.602936 0.822422 0.196430
-0.421293 0.927283 -0.425127 -0.676496 0.422874 -0.602936 0.858473 0.242313
-0.405193 1.198617 -0.252889 -0.676496 0.422874 -0.602936 0.769049 0.259192
-0.224436 1.294213 -0.313676 -0.516767 0.572188 -0.636830 0.744296 0.214766
-0.295674 1.026100 -0.496766 -0.516767 0.572188 -0.636830 0.822422 0.196430
-0.405193 1.198617 -0.252889 -0.516767 0.572188 -0.636830 0.769049 0.259192
-0.025128 1.386121 -0.237422 -0.125242 0.780139 -0.612942 0.702690 0.196942
-0.013339 1.197914 -0.479375 -0.125242 0.780139 -0.612942 0.754268 0.155405
-0.224436 1.294213 -0.313676 -0.125242 0.780139 -0.612942 0.744296 0.214766
-0.224436 1.294213 -0.313676 -0.313815 0.590905 -0.743204 0.744296 0.214766
-0.013339 1.197914 -0.479375 -0.313815 0.590905 -0.743204 0.754268 0.155405
-0.295674 1.026100 -0.496766 -0.313815 0.590905 -0.743204 0.822422 0.196430
-0.025128 1.386121 -0.237422 -0.273640 0.891976 -0.359862 0.702690 0.196942
-0.224436 1.294213 -0.313676 -0.273640 0.891976 -0.359862 0.744296 0.214766
-0.197863 1.395850 -0.081958 -0.273640 0.891976 -0.359862 0.697968 0.239777
0.077963 1.383591 0.232257 0.375348 0.878606 0.295237 0.619297 0.235347
0.266302 1.278968 0.304164 0.375348 0.878606 0.295237 0.580379 0.218845
0.240720 1.385970 0.018258 0.375348 0.878606 0.295237 0.634868 0.190128
0.224464 0.935021 -0.555945 0.120886 0.009025 -0.992625 0.000156 0.945611
0.001398 -0.929153 -0.600060 0.120886 0.009025 -0.992625 0.443685 0.982551
-0.068206 0.927490 -0.591656 0.120886 0.009025 -0.992625 0.000157 0.999845
0.224464 0.935021 -0.555945 0.263875 -0.008750 -0.964517 0.000156 0.945611
0.266770 -0.947718 -0.527290 0.263875 -0.008750 -0.964517 0.443685 0.937362
0.001398 -0.929153 -0.600060 0.263875 -0.008750 -0.964517 0.443685 0.982551
0.224464 0.935021 -0.555945 0.568383 0.000249 -0.822764 0.000156 0.945611
0.423459 -0.937572 -0.419043 0.568383 0.000249 -0.822764 0.443685 0.887696
0.266770 -0.947718 -0.527290 0.568383 0.000249 -0.822764 0.443685 0.937362
0.459228 0.927981 -0.379231 0.785565 -0.001857 -0.618776 0.000156 0.862070
0.534410 -0.828756 -0.278513 0.785565 -0.001857 -0.618776 0.443685 0.826350
0.423459 -0.937572 -0.419043 0.785565 -0.001857 -0.618776 0.443685 0.887696
0.588257 0.929153 -0.118437 0.962965 -0.004949 -0.269582 0.000156 0.781834
0.579876 -0.959493 -0.113705 0.962965 -0.004949 -0.269582 0.443685 0.781161
0.534410 -0.828756 -0.278513 0.962965 -0.004949 -0.269582 0.443685 0.826350
0.588257 0.929153 -0.118437 0.999863 -0.004477 -0.015916 0.000156 0.781834
0.583683 -0.937572 0.119286 0.999863 -0.004477 -0.015916 0.443684 0.731495
0.579876 -0.959493 -0.113705 0.999863 -0.004477 -0.015916 0.443685 0.781161
0.570453 0.927981 0.171144 0.921853 -0.004234 0.387518 0.000156 0.703115
0.493604 -0.937572 0.333571 0.921853 -0.004234 0.387518 0.443684 0.669014
0.583683 -0.937572 0.119286 0.921853 -0.004234 0.387518 0.443684 0.731495
0.336741 0.890828 0.499826 0.241370 0.003193 0.970428 0.000155 0.584808
-0.077298 -0.841930 0.608509 0.241370 0.003193 0.970428 0.443684 0.479839
0.321682 -0.890426 0.509432 0.241370 0.003193 0.970428 0.443684 0.581297
-0.077298 -0.841930 0.608509 -0.452328 -0.009183 0.891804 0.443684 0.479839
-0.334768 0.927283 0.496137 -0.452328 -0.009183 0.891804 0.000155 0.390712
-0.396457 -0.915550 0.445871 -0.452328 -0.009183 0.891804 0.443684 0.388988
-0.396457 -0.915550 0.445871 -0.812362 -0.008635 0.583089 0.443684 0.388988
-0.499299 0.928154 0.329895 -0.812362 -0.008635 0.583089 0.000155 0.328232
-0.558071 -0.928715 0.220515 -0.812362 -0.008635 0.583089 0.443684 0.316751
-0.592476 -0.922482 -0.064467 -0.942424 -0.007078 -0.334345 0.443685 0.231652
-0.534864 0.918395 -0.265832 -0.942424 -0.007078 -0.334345 0.000156 0.172030
-0.495501 -0.935021 -0.337547 -0.942424 -0.007078 -0.334345 0.443685 0.147850
-0.585998 0.934323 0.119720 -0.992778 -0.008407 0.119672 0.000155 0.265751
-0.592476 -0.922482 -0.064467 -0.992778 -0.008407 0.119672 0.443685 0.231652
-0.558071 -0.928715 0.220515 -0.992778 -0.008407 0.119672 0.443684 0.316751
-0.275560 -0.922482 -0.528442 -0.250462 -0.005008 -0.968113 0.443685 0.076586
-0.068206 0.927490 -0.591656 -0.250462 -0.005008 -0.968113 0.000156 0.015829
0.001398 -0.929153 -0.600060 -0.250462 -0.005008 -0.968113 0.443685 0.015370
-0.421293 0.927283 -0.425127 -0.655142 -0.009422 -0.755447 0.000156 0.109549
-0.275560 -0.922482 -0.528442 -0.655142 -0.009422 -0.755447 0.443685 0.076586
-0.495501 -0.935021 -0.337547 -0.655142 -0.009422 -0.755447 0.443685 0.147850
0.266770 -0.947718 -0.527290 0.220053 -0.378542 -0.899046 0.624604 0.484097
0.008131 -1.186797 -0.489931 0.220053 -0.378542 -0.899046 0.593798 0.577133
0.001398 -0.929153 -0.600060 0.220053 -0.378542 -0.899046 0.547258 0.516405
-0.077298 -0.841930 0.608509 -0.435380 -0.091100 0.895625 0.781265 0.849751
-0.396457 -0.915550 0.445871 -0.435380 -0.091100 0.895625 0.654782 0.860834
-0.258347 -1.052112 0.499119 -0.435380 -0.091100 0.895625 0.696650 0.816351
0.321682 -0.890426 0.509432 0.233077 -0.064772 0.970299 0.861970 0.728499
-0.077298 -0.841930 0.608509 0.233077 -0.064772 0.970299 0.781265 0.849751
0.157574 -1.052417 0.538039 0.233077 -0.064772 0.970299 0.792731 0.750615
0.008131 -1.186797 -0.489931 0.202577 -0.753219 -0.625799 0.593798 0.577133
0.275382 -1.186667 -0.403577 0.202577 -0.753219 -0.625799 0.654419 0.552087
0.073979 -1.388260 -0.226133 0.202577 -0.753219 -0.625799 0.650898 0.620621
-0.352642 -1.296357 -0.160006 -0.788495 -0.609710 -0.080806 0.589038 0.687099
-0.522645 -1.110633 0.097500 -0.788495 -0.609710 -0.080806 0.579208 0.768899
-0.498862 -1.102342 -0.197118 -0.788495 -0.609710 -0.080806 0.537411 0.707149
0.266770 -0.947718 -0.527290 0.544116 -0.370206 -0.752918 0.624604 0.484097
0.423459 -0.937572 -0.419043 0.544116 -0.370206 -0.752918 0.689147 0.475741
0.275382 -1.186667 -0.403577 0.544116 -0.370206 -0.752918 0.654419 0.552087
0.275382 -1.186667 -0.403577 0.563217 -0.700829 -0.437750 0.654419 0.552087
0.415246 -1.250032 -0.122178 0.563217 -0.700829 -0.437750 0.716857 0.589261
0.240443 -1.340998 -0.201447 0.563217 -0.700829 -0.437750 0.676723 0.604107
0.275382 -1.186667 -0.403577 0.626183 -0.633881 -0.453971 0.654419 0.552087
0.468173 -1.104713 -0.252083 0.626183 -0.633881 -0.453971 0.716911 0.539654
0.415246 -1.250032 -0.122178 0.626183 -0.633881 -0.453971 0.716857 0.589261
0.423459 -0.937572 -0.419043 0.860239 -0.226297 -0.456923 0.689147 0.475741
0.579876 -0.959493 -0.113705 0.860239 -0.226297 -0.456923 0.782789 0.521313
0.468173 -1.104713 -0.252083 0.860239 -0.226297 -0.456923 0.716911 0.539654
0.468173 -1.104713 -0.252083 0.832536 -0.505599 -0.226393 0.716911 0.539654
0.534588 -1.107134 -0.002443 0.832536 -0.505599 -0.226393 0.769113 0.579247
0.415246 -1.250032 -0.122178 0.832536 -0.505599 -0.226393 0.716857 0.589261
0.415246 -1.250032 -0.122178 0.646454 -0.758108 0.085843 0.716857 0.589261
0.437689 -1.194172 0.202134 0.646454 -0.758108 0.085843 0.773953 0.638562
0.245190 -1.382331 -0.009920 0.646454 -0.758108 0.085843 0.699258 0.630404
0.579876 -0.959493 -0.113705 0.958309 -0.285514 0.011204 0.782789 0.521313
0.583683 -0.937572 0.119286 0.958309 -0.285514 0.011204 0.836527 0.579599
0.534588 -1.107134 -0.002443 0.958309 -0.285514 0.011204 0.769113 0.579247
0.583683 -0.937572 0.119286 0.856109 -0.370894 0.359881 0.836527 0.579599
0.493604 -0.937572 0.333571 0.856109 -0.370894 0.359881 0.856407 0.651519
0.437689 -1.194172 0.202134 0.856109 -0.370894 0.359881 0.773953 0.638562
0.437689 -1.194172 0.202134 0.507305 -0.754561 0.416269 0.773953 0.638562
0.313302 -1.182291 0.375259 0.507305 -0.754561 0.416269 0.778810 0.687049
0.186321 -1.383445 0.165384 0.507305 -0.754561 0.416269 0.713118 0.664006
0.493604 -0.937572 0.333571 0.624961 -0.340813 0.702332 0.856407 0.651519
0.321682 -0.890426 0.509432 0.624961 -0.340813 0.702332 0.861970 0.728499
0.313302 -1.182291 0.375259 0.624961 -0.340813 0.702332 0.778810 0.687049
0.313302 -1.182291 0.375259 0.360134 -0.772710 0.522707 0.778810 0.687049
0.076759 -1.284569 0.387036 0.360134 -0.772710 0.522707 0.729739 0.718604
0.186321 -1.383445 0.165384 0.360134 -0.772710 0.522707 0.713118 0.664006
0.313302 -1.182291 0.375259 0.292924 -0.590903 0.751684 0.778810 0.687049
0.157574 -1.052417 0.538039 0.292924 -0.590903 0.751684 0.792731 0.750615
0.076759 -1.284569 0.387036 0.292924 -0.590903 0.751684 0.729739 0.718604
0.157574 -1.052417 0.538039 0.072831 -0.561497 0.824267 0.792731 0.750615
-0.047464 -1.043284 0.562378 0.072831 -0.561497 0.824267 0.752082 0.792712
0.076759 -1.284569 0.387036 0.072831 -0.561497 0.824267 0.729739 0.718604
-0.162673 -1.296075 0.347386 -0.212927 -0.574876 0.790051 0.687647 0.741841
-0.047464 -1.043284 0.562378 -0.212927 -0.574876 0.790051 0.752082 0.792712
-0.258347 -1.052112 0.499119 -0.212927 -0.574876 0.790051 0.696650 0.816351
-0.258347 -1.052112 0.499119 -0.633934 -0.378049 0.674690 0.696650 0.816351
-0.396457 -0.915550 0.445871 -0.633934 -0.378049 0.674690 0.654782 0.860834
-0.376932 -1.178402 0.316933 -0.633934 -0.378049 0.674690 0.643939 0.779379
-0.396457 -0.915550 0.445871 -0.757203 -0.332139 0.562430 0.654782 0.860834
-0.558071 -0.928715 0.220515 -0.757203 -0.332139 0.562430 0.570945 0.830387
-0.376932 -1.178402 0.316933 -0.757203 -0.332139 0.562430 0.643939 0.779379
-0.376932 -1.178402 0.316933 -0.741623 -0.595668 0.308505 0.643939 0.779379
-0.522645 -1.110633 0.097500 -0.741623 -0.595668 0.308505 0.579208 0.768899
-0.375050 -1.290006 0.105969 -0.741623 -0.595668 0.308505 0.619357 0.732752
-0.558071 -0.928715 0.220515 -0.958995 -0.261180 0.110065 0.570945 0.830387
-0.592476 -0.922482 -0.064467 -0.958995 -0.261180 0.110065 0.506124 0.772170
-0.522645 -1.110633 0.097500 -0.958995 -0.261180 0.110065 0.579208 0.768899
0.001398 -0.929153 -0.600060 -0.240714 -0.372769 -0.896158 0.547258 0.516405
-0.297824 -1.106958 -0.445726 -0.240714 -0.372769 -0.896158 0.536721 0.626938
-0.275560 -0.922482 -0.528442 -0.240714 -0.372769 -0.896158 0.490472 0.592322
-0.498862 -1.102342 -0.197118 -0.917022 -0.245430 -0.314379 0.537411 0.707149
-0.592476 -0.922482 -0.064467 -0.917022 -0.245430 -0.314379 0.506124 0.772170
-0.495501 -0.935021 -0.337547 -0.917022 -0.245430 -0.314379 0.475508 0.686500
-0.352642 -1.296357 -0.160006 -0.639363 -0.578702 -0.506280 0.589038 0.687099
-0.498862 -1.102342 -0.197118 -0.639363 -0.578702 -0.506280 0.537411 0.707149
-0.297824 -1.106958 -0.445726 -0.639363 -0.578702 -0.506280 0.536721 0.626938
-0.495501 -0.935021 -0.337547 -0.625447 -0.255140 -0.737374 0.475508 0.686500
-0.275560 -0.922482 -0.528442 -0.625447 -0.255140 -0.737374 0.490472 0.592322
-0.297824 -1.106958 -0.445726 -0.625447 -0.255140 -0.737374 0.536721 0.626938
-0.211607 -1.395058 0.027155 -0.394961 -0.858965 0.325860 0.640163 0.693104
-0.162673 -1.296075 0.347386 -0.394961 -0.858965 0.325860 0.687647 0.741841
-0.375050 -1.290006 0.105969 -0.394961 -0.858965 0.325860 0.619357 0.732752
-0.164611 -1.296887 -0.342059 -0.075681 -0.852925 -0.516519 0.592617 0.633826
0.073979 -1.388260 -0.226133 -0.075681 -0.852925 -0.516519 0.650898 0.620621
-0.101182 -1.395024 -0.189298 -0.075681 -0.852925 -0.516519 0.631017 0.651471
-0.101182 -1.395024 -0.189298 -0.375602 -0.842808 -0.385485 0.631017 0.651471
-0.352642 -1.296357 -0.160006 -0.375602 -0.842808 -0.385485 0.589038 0.687099
-0.164611 -1.296887 -0.342059 -0.375602 -0.842808 -0.385485 0.592617 0.633826
-0.375050 -1.290006 0.105969 -0.549463 -0.835102 -0.026351 0.619357 0.732752
-0.352642 -1.296357 -0.160006 -0.549463 -0.835102 -0.026351 0.589038 0.687099
-0.211607 -1.395058 0.027155 -0.549463 -0.835102 -0.026351 0.640163 0.693104
0.224464 0.935021 -0.555945 0.161726 0.408000 -0.898544 0.753180 0.053565
-0.013339 1.197914 -0.479375 0.161726 0.408000 -0.898544 0.754268 0.155405
0.257722 1.116557 -0.467530 0.161726 0.408000 -0.898544 0.715557 0.098059
0.076759 -1.284569 0.387036 -0.053193 -0.826149 0.560935 0.729739 0.718604
-0.162673 -1.296075 0.347386 -0.053193 -0.826149 0.560935 0.687647 0.741841
-0.035627 -1.395914 0.212390 -0.053193 -0.826149 0.560935 0.684313 0.697278
-0.035627 -1.395914 0.212390 0.147106 -0.874228 0.462694 0.684313 0.697278
0.186321 -1.383445 0.165384 0.147106 -0.874228 0.462694 0.713118 0.664006
0.076759 -1.284569 0.387036 0.147106 -0.874228 0.462694 0.729739 0.718604
-0.025128 1.386121 -0.237422 0.145751 0.784320 -0.602991 0.702690 0.196942
0.164653 1.377910 -0.202228 0.145751 0.784320 -0.602991 0.677955 0.170567
-0.013339 1.197914 -0.479375 0.145751 0.784320 -0.602991 0.754268 0.155405
0.588257 0.929153 -0.118437 0.927577 0.369020 0.058524 0.575801 0.054140
0.468169 1.194279 0.113171 0.927577 0.369020 0.058524 0.576676 0.154515
0.570453 0.927981 0.171144 0.927577 0.369020 0.058524 0.507312 0.115652
0.164653 1.377910 -0.202228 0.172981 0.771558 -0.612190 0.677955 0.170567
0.273704 1.255308 -0.325933 0.172981 0.771558 -0.612190 0.683143 0.131460
-0.013339 1.197914 -0.479375 0.172981 0.771558 -0.612190 0.754268 0.155405
-0.013339 1.197914 -0.479375 0.234692 0.680924 -0.693730 0.754268 0.155405
0.273704 1.255308 -0.325933 0.234692 0.680924 -0.693730 0.683143 0.131460
0.257722 1.116557 -0.467530 0.234692 0.680924 -0.693730 0.715557 0.098059
0.257722 1.116557 -0.467530 0.584796 0.266084 -0.766298 0.715557 0.098059
0.459228 0.927981 -0.379231 0.584796 0.266084 -0.766298 0.664981 0.030953
0.224464 0.935021 -0.555945 0.584796 0.266084 -0.766298 0.753180 0.053565
0.273704 1.255308 -0.325933 0.624568 0.521404 -0.581423 0.683143 0.131460
0.468173 1.104713 -0.252083 0.624568 0.521404 -0.581423 0.639999 0.088391
0.257722 1.116557 -0.467530 0.624568 0.521404 -0.581423 0.715557 0.098059
0.164653 1.377910 -0.202228 0.570600 0.776694 -0.266762 0.677955 0.170567
0.482034 1.184760 -0.085722 0.570600 0.776694 -0.266762 0.610649 0.120785
0.273704 1.255308 -0.325933 0.570600 0.776694 -0.266762 0.683143 0.131460
0.468173 1.104713 -0.252083 0.863875 0.264624 -0.428596 0.639999 0.088391
0.588257 0.929153 -0.118437 0.863875 0.264624 -0.428596 0.575801 0.054140
0.459228 0.927981 -0.379231 0.863875 0.264624 -0.428596 0.664981 0.030953
0.240720 1.385970 0.018258 0.642437 0.766295 0.008113 0.634868 0.190128
0.468169 1.194279 0.113171 0.642437 0.766295 0.008113 0.576676 0.154515
0.482034 1.184760 -0.085722 0.642437 0.766295 0.008113 0.610649 0.120785
0.570453 0.927981 0.171144 0.818555 0.405498 0.406865 0.507312 0.115652
0.379738 1.107134 0.376283 0.818555 0.405498 0.406865 0.531604 0.207652
0.468660 0.941811 0.362152 0.818555 0.405498 0.406865 0.483965 0.180343
0.266302 1.278968 0.304164 0.662110 0.616135 0.426600 0.580379 0.218845
0.379738 1.107134 0.376283 0.662110 0.616135 0.426600 0.531604 0.207652
0.468169 1.194279 0.113171 0.662110 0.616135 0.426600 0.576676 0.154515
0.336741 0.890828 0.499826 0.385812 0.314025 0.867489 0.460576 0.240358
0.106689 1.107134 0.523839 0.385812 0.314025 0.867489 0.546443 0.284486
0.106745 0.930213 0.587858 0.385812 0.314025 0.867489 0.494349 0.313234
0.379738 1.107134 0.376283 0.638362 0.282142 0.716164 0.531604 0.207652
0.336741 0.890828 0.499826 0.638362 0.282142 0.716164 0.460576 0.240358
0.468660 0.941811 0.362152 0.638362 0.282142 0.716164 0.483965 0.180343
0.266302 1.278968 0.304164 0.392576 0.564050 0.726452 0.580379 0.218845
0.106689 1.107134 0.523839 0.392576 0.564050 0.726452 0.546443 0.284486
0.379738 1.107134 0.376283 0.392576 0.564050 0.726452 0.531604 0.207652
-0.250823 1.112106 0.475604 -0.588812 0.594344 0.547773 0.613677 0.344536
-0.341071 1.284501 0.191542 -0.588812 0.594344 0.547773 0.680507 0.303408
-0.472041 1.102008 0.248768 -0.588812 0.594344 0.547773 0.692569 0.355063
0.077963 1.383591 0.232257 0.194870 0.769130 0.608658 0.619297 0.235347
-0.003148 1.247345 0.430393 0.194870 0.769130 0.608658 0.593853 0.280799
0.266302 1.278968 0.304164 0.194870 0.769130 0.608658 0.580379 0.218845
0.106689 1.107134 0.523839 -0.010135 0.340240 0.940284 0.546443 0.284486
-0.119422 0.927283 0.586481 -0.010135 0.340240 0.940284 0.541556 0.370770
0.106745 0.930213 0.587858 -0.010135 0.340240 0.940284 0.494349 0.313234
-0.003148 1.247345 0.430393 -0.109841 0.490217 0.864652 0.593853 0.280799
-0.250823 1.112106 0.475604 -0.109841 0.490217 0.864652 0.613677 0.344536
0.106689 1.107134 0.523839 -0.109841 0.490217 0.864652 0.546443 0.284486
-0.003148 1.247345 0.430393 -0.221433 0.648885 0.727953 0.593853 0.280799
-0.194742 1.297770 0.327165 -0.221433 0.648885 0.727953 0.639794 0.296477
-0.250823 1.112106 0.475604 -0.221433 0.648885 0.727953 0.613677 0.344536
-0.250823 1.112106 0.475604 -0.372713 0.267982 0.888409 0.613677 0.344536
-0.334768 0.927283 0.496137 -0.372713 0.267982 0.888409 0.607996 0.406935
-0.119422 0.927283 0.586481 -0.372713 0.267982 0.888409 0.541556 0.370770
-0.250823 1.112106 0.475604 -0.658805 0.371878 0.653975 0.613677 0.344536
-0.499299 0.928154 0.329895 -0.658805 0.371878 0.653975 0.682428 0.415115
-0.334768 0.927283 0.496137 -0.658805 0.371878 0.653975 0.607996 0.406935
-0.341071 1.284501 0.191542 -0.767357 0.611358 0.193402 0.680507 0.303408
-0.534523 1.106488 -0.013300 -0.767357 0.611358 0.193402 0.753396 0.324128
-0.472041 1.102008 0.248768 -0.767357 0.611358 0.193402 0.692569 0.355063
-0.534864 0.918395 -0.265832 -0.858754 0.411484 -0.305325 0.842990 0.305977
-0.534523 1.106488 -0.013300 -0.858754 0.411484 -0.305325 0.753396 0.324128
-0.405193 1.198617 -0.252889 -0.858754 0.411484 -0.305325 0.769049 0.259192
-0.472041 1.102008 0.248768 -0.876831 0.429350 0.216391 0.692569 0.355063
-0.534523 1.106488 -0.013300 -0.876831 0.429350 0.216391 0.753396 0.324128
-0.585998 0.934323 0.119720 -0.876831 0.429350 0.216391 0.753305 0.393099
-0.534523 1.106488 -0.013300 -0.953996 0.299269 0.018169 0.753396 0.324128
-0.588934 0.936454 -0.069541 -0.953996 0.299269 0.018169 0.800467 0.351493
-0.585998 0.934323 0.119720 -0.953996 0.299269 0.018169 0.753305 0.393099
-0.341071 1.284501 0.191542 -0.426233 0.893615 0.140633 0.680507 0.303408
-0.197863 1.395850 -0.081958 -0.426233 0.893615 0.140633 0.697968 0.239777
-0.381350 1.298002 -0.016324 -0.426233 0.893615 0.140633 0.717482 0.282144
-0.381350 1.298002 -0.016324 -0.521297 0.804258 -0.285339 0.717482 0.282144
-0.224436 1.294213 -0.313676 -0.521297 0.804258 -0.285339 0.744296 0.214766
-0.405193 1.198617 -0.252889 -0.521297 0.804258 -0.285339 0.769049 0.259192
-0.405193 1.198617 -0.252889 -0.763790 0.377616 -0.523480 0.769049 0.259192
-0.421293 0.927283 -0.425127 -0.763790 0.377616 -0.523480 0.858473 0.242313
-0.534864 0.918395 -0.265832 -0.763790 0.377616 -0.523480 0.842990 0.305977
0.493604 -0.937572 0.333571 0.714764 -0.002271 0.699362 0.443684 0.669014
0.336741 0.890828 0.499826 0.714764 -0.002271 0.699362 0.000155 0.584808
0.321682 -0.890426 0.509432 0.714764 -0.002271 0.699362 0.443684 0.581297
-0.295674 1.026100 -0.496766 -0.194309 0.409522 -0.891367 0.822422 0.196430
-0.013339 1.197914 -0.479375 -0.194309 0.409522 -0.891367 0.754268 0.155405
-0.068206 0.927490 -0.591656 -0.194309 0.409522 -0.891367 0.825512 0.117762
-0.197863 1.395850 -0.081958 -0.528940 0.797831 -0.289290 0.697968 0.239777
-0.224436 1.294213 -0.313676 -0.528940 0.797831 -0.289290 0.744296 0.214766
-0.381350 1.298002 -0.016324 -0.528940 0.797831 -0.289290 0.717482 0.282144
-0.120322 1.395990 0.180074 -0.406436 0.841386 0.356200 0.654538 0.256718
-0.341071 1.284501 0.191542 -0.406436 0.841386 0.356200 0.680507 0.303408
-0.194742 1.297770 0.327165 -0.406436 0.841386 0.356200 0.639794 0.296477
-0.120322 1.395990 0.180074 -0.084704 0.847907 0.523334 0.654538 0.256718
-0.194742 1.297770 0.327165 -0.084704 0.847907 0.523334 0.639794 0.296477
0.077963 1.383591 0.232257 -0.084704 0.847907 0.523334 0.619297 0.235347
0.336741 0.890828 0.499826 0.353489 -0.025815 0.935082 0.000155 0.584808
0.106745 0.930213 0.587858 0.353489 -0.025815 0.935082 0.000155 0.515673
-0.077298 -0.841930 0.608509 0.353489 -0.025815 0.935082 0.443684 0.479839
-0.077298 -0.841930 0.608509 -0.386862 0.002270 0.922135 0.443684 0.479839
-0.119422 0.927283 0.586481 -0.386862 0.002270 0.922135 0.000155 0.453193
-0.334768 0.927283 0.496137 -0.386862 0.002270 0.922135 0.000155 0.390712
-0.396457 -0.915550 0.445871 -0.710735 0.004605 0.703444 0.443684 0.388988
-0.334768 0.927283 0.496137 -0.710735 0.004605 0.703444 0.000155 0.390712
-0.499299 0.928154 0.329895 -0.710735 0.004605 0.703444 0.000155 0.328232
-0.592476 -0.922482 -0.064467 -0.964066 0.001112 -0.265661 0.443685 0.231652
-0.588934 0.936454 -0.069541 -0.964066 0.001112 -0.265661 0.000155 0.218837
-0.534864 0.918395 -0.265832 -0.964066 0.001112 -0.265661 0.000156 0.172030
-0.275560 -0.922482 -0.528442 -0.380877 0.011098 -0.924559 0.443685 0.076586
-0.295674 1.026100 -0.496766 -0.380877 0.011098 -0.924559 0.000156 0.062636
-0.068206 0.927490 -0.591656 -0.380877 0.011098 -0.924559 0.000156 0.015829
0.266770 -0.947718 -0.527290 0.277216 -0.433855 -0.857276 0.624604 0.484097
0.275382 -1.186667 -0.403577 0.277216 -0.433855 -0.857276 0.654419 0.552087
0.008131 -1.186797 -0.489931 0.277216 -0.433855 -0.857276 0.593798 0.577133
-0.352642 -1.296357 -0.160006 -0.770087 -0.636000 -0.049692 0.589038 0.687099
-0.375050 -1.290006 0.105969 -0.770087 -0.636000 -0.049692 0.619357 0.732752
-0.522645 -1.110633 0.097500 -0.770087 -0.636000 -0.049692 0.579208 0.768899
0.001398 -0.929153 -0.600060 -0.230110 -0.387574 -0.892656 0.547258 0.516405
0.008131 -1.186797 -0.489931 -0.230110 -0.387574 -0.892656 0.593798 0.577133
-0.297824 -1.106958 -0.445726 -0.230110 -0.387574 -0.892656 0.536721 0.626938
-0.211607 -1.395058 0.027155 -0.346311 -0.880046 0.324942 0.640163 0.693104
-0.035627 -1.395914 0.212390 -0.346311 -0.880046 0.324942 0.684313 0.697278
-0.162673 -1.296075 0.347386 -0.346311 -0.880046 0.324942 0.687647 0.741841
0.224464 0.935021 -0.555945 0.103620 0.363394 -0.925855 0.753180 0.053565
-0.068206 0.927490 -0.591656 0.103620 0.363394 -0.925855 0.825512 0.117762
-0.013339 1.197914 -0.479375 0.103620 0.363394 -0.925855 0.754268 0.155405
0.588257 0.929153 -0.118437 0.924532 0.378276 0.046349 0.575801 0.054140
0.482034 1.184760 -0.085722 0.924532 0.378276 0.046349 0.610649 0.120785
0.468169 1.194279 0.113171 0.924532 0.378276 0.046349 0.576676 0.154515
0.570453 0.927981 0.171144 0.818639 0.403422 0.408756 0.507312 0.115652
0.468169 1.194279 0.113171 0.818639 0.403422 0.408756 0.576676 0.154515
0.379738 1.107134 0.376283 0.818639 0.403422 0.408756 0.531604 0.207652
0.336741 0.890828 0.499826 0.440199 0.377741 0.814577 0.460576 0.240358
0.379738 1.107134 0.376283 0.440199 0.377741 0.814577 0.531604 0.207652
0.106689 1.107134 0.523839 0.440199 0.377741 0.814577 0.546443 0.284486
-0.250823 1.112106 0.475604 -0.566682 0.612118 0.551529 0.613677 0.344536
-0.194742 1.297770 0.327165 -0.566682 0.612118 0.551529 0.639794 0.296477
-0.341071 1.284501 0.191542 -0.566682 0.612118 0.551529 0.680507 0.303408
-0.341071 1.284501 0.191542 -0.765523 0.615238 0.188297 0.680507 0.303408
-0.381350 1.298002 -0.016324 -0.765523 0.615238 0.188297 0.717482 0.282144
-0.534523 1.106488 -0.013300 -0.765523 0.615238 0.188297 0.753396 0.324128
-0.534864 0.918395 -0.265832 -0.884341 0.374972 -0.278095 0.842990 0.305977
-0.588934 0.936454 -0.069541 -0.884341 0.374972 -0.278095 0.800467 0.351493
-0.534523 1.106488 -0.013300 -0.884341 0.374972 -0.278095 0.753396 0.324128
-0.341071 1.284501 0.191542 -0.441581 0.887724 0.130198 0.680507 0.303408
-0.120322 1.395990 0.180074 -0.441581 0.887724 0.130198 0.654538 0.256718
-0.197863 1.395850 -0.081958 -0.441581 0.887724 0.130198 0.697968 0.239777
0.493604 -0.937572 0.333571 0.722207 -0.000933 0.691676 0.443684 0.669014
0.468660 0.941811 0.362152 0.722207 -0.000933 0.691676 0.000155 0.656202
0.336741 0.890828 0.499826 0.722207 -0.000933 0.691676 0.000155 0.584808
3 0 1 2
3 3 4 5
3 6 7 8
3 9 10 11
3 12 13 14
3 15 16 17
3 18 19 20
3 21 22 23
3 24 25 26
3 27 28 29
3 30 31 32
3 33 34 35
3 36 37 38
3 39 40 41
3 42 43 44
3 45 46 47
3 48 49 50
3 51 52 53
3 54 55 56
3 57 58 59
3 60 61 62
3 63 64 65
3 66 67 68
3 69 70 71
3 72 73 74
3 75 76 77
3 78 79 80
3 81 82 83
3 84 85 86
3 87 88 89
3 90 91 92
3 93 94 95
3 96 97 98
3 99 100 101
3 102 103 104
3 105 106 107
3 108 109 110
3 111 112 113
3 114 115 116
3 117 118 119
3 120 121 122
3 123 124 125
3 126 127 128
3 129 130 131
3 132 133 134
3 135 136 137
3 138 139 140
3 141 142 143
3 144 145 146
3 147 148 149
3 150 151 152
3 153 154 155
3 156 157 158
3 159 160 161
3 162 163 164
3 165 166 167
3 168 169 170
3 171 172 173
3 174 175 176
3 177 178 179
3 180 181 182
3 183 184 185
3 186 187 188
3 189 190 191
3 192 193 194
3 195 196 197
3 198 199 200
3 201 202 203
3 204 205 206
3 207 208 209
3 210 211 212
3 213 214 215
3 216 217 218
3 219 220 221
3 222 223 224
3 225 226 227
3 228 229 230
3 231 232 233
3 234 235 236
3 237 238 239
3 240 241 242
3 243 244 245
3 246 247 248
3 249 250 251
3 252 253 254
3 255 256 257
3 258 259 260
3 261 262 263
3 264 265 266
3 267 268 269
3 270 271 272
3 273 274 275
3 276 277 278
3 279 280 281
3 282 283 284
3 285 286 287
3 288 289 290
3 291 292 293
3 294 295 296
3 297 298 299
3 300 301 302
3 303 304 305
3 306 307 308
3 309 310 311
3 312 313 314
3 315 316 317
3 318 319 320
3 321 322 323
3 324 325 326
3 327 328 329
3 330 331 332
3 333 334 335
3 336 337 338
3 339 340 341
3 342 343 344
3 345 346 347
3 348 349 350
3 351 352 353
3 354 355 356
3 357 358 359
3 360 361 362
3 363 364 365
3 366 367 368
3 369 370 371
3 372 373 374
3 375 376 377
3 378 379 380
3 381 382 383
3 384 385 386
3 387 388 389
3 390 391 392
3 393 394 395
3 396 397 398
3 399 400 401
3 402 403 404
3 405 406 407
3 408 409 410
3 411 412 413
3 414 415 416
3 417 418 419
3 420 421 422
3 423 424 425
3 426 427 428
3 429 430 431
3 432 433 434
3 435 436 437
3 438 439 440
3 441 442 443
3 444 445 446
3 447 448 449
3 450 451 452
3 453 454 455
3 456 457 458
3 459 460 461
3 462 463 464
3 465 466 467
3 468 469 470
3 471 472 473
3 474 475 476
3 477 478 479
